<svg width="28" height="32" viewBox="0 0 28 32" fill="none" xmlns="http://www.w3.org/2000/svg">
<path fill-rule="evenodd" clip-rule="evenodd" d="M20.1651 0C20.4513 1.94365 19.6602 3.84776 18.6166 5.19496C17.5 6.64009 15.5754 7.75769 13.7107 7.69938C13.3703 5.83854 14.2419 3.92122 15.3024 2.63234C16.4657 1.20987 18.4594 0.118536 20.1651 0ZM25.7668 27.358C26.7281 25.8847 27.0872 25.1415 27.8334 23.4781C22.4058 21.4141 21.5361 13.6978 26.9076 10.7362C25.2692 8.68155 22.9669 7.4905 20.7936 7.4905C19.2276 7.4905 18.1547 7.89914 17.1793 8.27064C16.3665 8.58031 15.6213 8.86401 14.7151 8.86401C13.7358 8.86401 12.8685 8.55309 11.9605 8.22748C10.9626 7.86975 9.91546 7.49426 8.61599 7.49426C6.17717 7.49426 3.58118 8.9845 1.93526 11.5321C-0.378281 15.1203 0.0163451 21.8657 3.76819 27.612C5.10923 29.6686 6.90094 31.9792 9.24443 31.9998C10.2168 32.0094 10.8639 31.7193 11.5641 31.4052C12.3657 31.0457 13.2367 30.655 14.745 30.647C16.2622 30.6379 17.1195 31.0333 17.9104 31.3981C18.5927 31.7128 19.2253 32.0047 20.1895 31.9942C22.5348 31.9754 24.4257 29.4145 25.7668 27.358Z" fill="#141414"/>
</svg>
