<svg width="30" height="30" viewBox="0 0 30 30" fill="none" xmlns="http://www.w3.org/2000/svg">
<path d="M15 5.79995C17.8167 5.79995 19.7166 7.01668 20.8001 8.03336L25.0334 3.9C22.4334 1.48327 19.05 0 15 0C9.13341 0 4.06673 3.36663 1.6001 8.26658L6.45 12.0333C7.66673 8.41658 11.0334 5.79995 15 5.79995Z" fill="#EA4335"/>
<path d="M29.4 15.3333C29.4 14.1 29.3 13.2 29.0833 12.2666H15V17.8332H23.2667C23.1 19.2165 22.2 21.3 20.2 22.6999L24.9333 26.3666C27.7667 23.7499 29.4 19.8999 29.4 15.3333Z" fill="#4285F4"/>
<path d="M6.46673 17.9668C6.14999 17.0335 5.96668 16.0334 5.96668 15.0001C5.96668 13.9667 6.15 12.9667 6.45 12.0334L1.59995 8.26668C0.583413 10.3 0 12.5834 0 15.0001C0 17.4167 0.583413 19.7001 1.59995 21.7334L6.46673 17.9668Z" fill="#FBBC05"/>
<path d="M15 30C19.05 30 22.45 28.6667 24.9333 26.3667L20.2 22.7C18.9333 23.5833 17.2333 24.2 15 24.2C11.0334 24.2 7.66674 21.5832 6.46674 17.9667L1.6167 21.7332C4.08333 26.6333 9.13328 30 15 30Z" fill="#34A853"/>
</svg>
