<svg width="552" height="303" viewBox="0 0 552 303" fill="none" xmlns="http://www.w3.org/2000/svg">
<mask id="path-1-outside-1_80_441" maskUnits="userSpaceOnUse" x="0" y="0" width="552" height="303" fill="black">
<rect fill="white" width="552" height="303"/>
<path d="M215.267 30.5724C265.313 42.5884 267.471 38.3159 299.846 2.00026C308.479 12.6813 275.16 64.6183 275.16 80.6399V191.99C275.16 225.903 264.706 252.071 243.797 270.496C222.889 288.788 193.954 297.933 156.993 297.933C120.167 297.933 91.502 288.921 70.9982 270.897C39.6354 245.529 7.21981 238.813 2 226.303C32.2162 234.848 39.6354 209.928 39.6354 191.99V113.284C55.5528 100.734 73.9658 94.4586 94.8744 94.4586C112.411 94.4586 126.305 99.0648 136.557 108.277C146.808 117.356 151.934 131.175 151.934 149.733V202.404C153.418 203.472 155.104 204.006 156.993 204.006C159.016 204.006 160.433 203.539 161.242 202.605C162.186 201.536 162.659 199.601 162.659 196.797V85.4464C162.659 77.0351 162.254 70.3594 161.444 65.4194C160.635 60.4794 159.016 55.5394 156.588 50.5994C172.776 37.248 192.335 30.5724 215.267 30.5724Z"/>
<path d="M421.385 212.818C422.734 212.818 423.948 212.485 425.027 211.817V193.592C434.2 187.451 447.015 182.444 463.472 178.572C480.064 174.7 496.183 172.764 511.831 172.764C518.981 179.974 524.916 190.789 529.637 205.208C534.493 219.494 537.056 232.445 537.326 244.061C534.628 249.401 530.042 255.142 523.567 261.284C517.227 267.425 509.538 273.1 500.5 278.307C478.108 291.391 452.41 297.933 423.408 297.933C332.22 286.117 291.347 316.425 267.471 292.526C325.745 260.483 288.245 204.474 288.245 161.749C288.245 118.892 301.734 85.2462 328.713 60.8132C340.583 49.8651 354.41 41.654 370.193 36.1799C385.975 30.5724 402.567 27.7686 419.968 27.7686C436.835 27.7686 483.301 6.27269 483.301 6.27269C483.301 6.27269 492.593 43.9948 503.535 52.2016C525.253 68.4902 536.112 88.584 536.112 112.483C536.112 130.507 530.514 143.859 519.318 152.537C508.122 161.082 492.946 165.354 473.791 165.354C463.269 165.354 452.68 162.818 442.024 157.744C431.367 152.537 425.027 147.664 423.004 143.124C423.004 132.176 423.206 123.565 423.611 117.289C423.341 117.156 422.869 117.089 422.194 117.089H420.778C418.754 117.089 417.136 117.69 415.922 118.892C414.842 119.96 413.831 122.296 412.887 125.901C412.077 129.506 411.672 139.319 411.672 155.341C411.672 193.659 414.91 212.818 421.385 212.818Z"/>
<path d="M219.584 30.5724C269.629 42.5884 271.788 38.3159 304.162 2.00026C312.795 12.6813 279.477 64.6183 279.477 80.6399V191.99C279.477 225.903 269.022 252.071 248.114 270.496C227.205 288.788 198.271 297.933 161.31 297.933C124.484 297.933 95.8186 288.921 75.3148 270.897C43.952 245.529 11.5364 238.813 6.3166 226.303C36.5328 234.848 43.952 209.928 43.952 191.99V113.284C59.8694 100.734 78.2824 94.4586 99.191 94.4586C116.727 94.4586 130.621 99.0648 140.873 108.277C151.125 117.356 156.251 131.175 156.251 149.733V202.404C157.735 203.472 159.421 204.006 161.31 204.006C163.333 204.006 164.749 203.539 165.559 202.605C166.503 201.536 166.975 199.601 166.975 196.797V85.4464C166.975 77.0351 166.57 70.3594 165.761 65.4194C164.952 60.4794 163.333 55.5394 160.905 50.5994C177.092 37.248 196.652 30.5724 219.584 30.5724Z"/>
<path d="M425.701 212.818C427.05 212.818 428.264 212.485 429.344 211.817V193.592C438.516 187.451 451.331 182.444 467.788 178.572C484.38 174.7 500.5 172.764 516.148 172.764C523.297 179.974 529.232 190.789 533.954 205.208C538.81 219.494 541.373 232.445 541.643 244.061C538.945 249.401 534.358 255.142 527.883 261.284C521.543 267.425 513.855 273.1 504.817 278.307C482.424 291.391 456.727 297.933 427.725 297.933C336.537 286.117 295.664 316.425 271.788 292.526C330.062 260.483 292.561 204.474 292.561 161.749C292.561 118.892 306.051 85.2462 333.029 60.8132C344.9 49.8651 358.727 41.654 374.509 36.1799C390.292 30.5724 406.884 27.7686 424.285 27.7686C441.151 27.7686 487.618 6.27269 487.618 6.27269C487.618 6.27269 496.91 43.9948 507.852 52.2016C529.57 68.4902 540.429 88.584 540.429 112.483C540.429 130.507 534.831 143.859 523.634 152.537C512.438 161.082 497.263 165.354 478.108 165.354C467.586 165.354 456.997 162.818 446.34 157.744C435.684 152.537 429.344 147.664 427.32 143.124C427.32 132.176 427.523 123.565 427.927 117.289C427.657 117.156 427.185 117.089 426.511 117.089H425.094C423.071 117.089 421.452 117.69 420.238 118.892C419.159 119.96 418.147 122.296 417.203 125.901C416.394 129.506 415.989 139.319 415.989 155.341C415.989 193.659 419.227 212.818 425.701 212.818Z"/>
<path d="M228.216 30.5721C278.262 42.5881 280.42 38.3157 312.795 2C321.428 12.6811 288.109 64.6181 288.109 80.6397V191.99C288.109 225.902 277.655 252.071 256.746 270.496C235.838 288.787 206.903 297.933 169.942 297.933C133.116 297.933 104.451 288.921 83.9475 270.896C52.5847 245.529 20.1691 238.812 14.9493 226.303C45.1655 234.848 52.5847 209.927 52.5847 191.99V113.284C68.5021 100.733 86.9151 94.4583 107.824 94.4583C125.36 94.4583 139.254 99.0646 149.506 108.277C159.758 117.356 164.884 131.175 164.884 149.733V202.404C166.368 203.472 168.054 204.006 169.942 204.006C171.966 204.006 173.382 203.539 174.191 202.604C175.136 201.536 175.608 199.6 175.608 196.796V85.4462C175.608 77.0348 175.203 70.3591 174.394 65.4191C173.584 60.4791 171.966 55.5391 169.538 50.5991C185.725 37.2478 205.284 30.5721 228.216 30.5721Z"/>
<path d="M434.334 212.818C435.683 212.818 436.897 212.484 437.976 211.817V193.592C447.149 187.451 459.964 182.444 476.421 178.572C493.013 174.7 509.133 172.764 524.78 172.764C531.93 179.974 537.865 190.788 542.586 205.208C547.443 219.494 550.006 232.445 550.275 244.06C547.577 249.401 542.991 255.142 536.516 261.284C530.176 267.425 522.487 273.099 513.449 278.306C491.057 291.391 465.36 297.933 436.358 297.933C345.169 286.117 304.296 316.424 280.42 292.525C338.694 260.482 301.194 204.474 301.194 161.749C301.194 118.891 314.683 85.2459 341.662 60.8129C353.533 49.8648 367.359 41.6537 383.142 36.1797C398.924 30.5721 415.516 27.7683 432.918 27.7683C449.784 27.7683 496.25 6.27243 496.25 6.27243C496.25 6.27243 505.542 43.9946 516.484 52.2013C538.202 68.4899 549.061 88.5837 549.061 112.483C549.061 130.507 543.463 143.858 532.267 152.537C521.071 161.082 505.895 165.354 486.74 165.354C476.219 165.354 465.629 162.817 454.973 157.744C444.316 152.537 437.976 147.663 435.953 143.124C435.953 132.176 436.155 123.564 436.56 117.289C436.29 117.156 435.818 117.089 435.143 117.089H433.727C431.704 117.089 430.085 117.69 428.871 118.891C427.792 119.959 426.78 122.296 425.836 125.901C425.026 129.506 424.622 139.319 424.622 155.341C424.622 193.659 427.859 212.818 434.334 212.818Z"/>
</mask>
<path d="M215.267 30.5724C265.313 42.5884 267.471 38.3159 299.846 2.00026C308.479 12.6813 275.16 64.6183 275.16 80.6399V191.99C275.16 225.903 264.706 252.071 243.797 270.496C222.889 288.788 193.954 297.933 156.993 297.933C120.167 297.933 91.502 288.921 70.9982 270.897C39.6354 245.529 7.21981 238.813 2 226.303C32.2162 234.848 39.6354 209.928 39.6354 191.99V113.284C55.5528 100.734 73.9658 94.4586 94.8744 94.4586C112.411 94.4586 126.305 99.0648 136.557 108.277C146.808 117.356 151.934 131.175 151.934 149.733V202.404C153.418 203.472 155.104 204.006 156.993 204.006C159.016 204.006 160.433 203.539 161.242 202.605C162.186 201.536 162.659 199.601 162.659 196.797V85.4464C162.659 77.0351 162.254 70.3594 161.444 65.4194C160.635 60.4794 159.016 55.5394 156.588 50.5994C172.776 37.248 192.335 30.5724 215.267 30.5724Z" fill="#FF3030"/>
<path d="M421.385 212.818C422.734 212.818 423.948 212.485 425.027 211.817V193.592C434.2 187.451 447.015 182.444 463.472 178.572C480.064 174.7 496.183 172.764 511.831 172.764C518.981 179.974 524.916 190.789 529.637 205.208C534.493 219.494 537.056 232.445 537.326 244.061C534.628 249.401 530.042 255.142 523.567 261.284C517.227 267.425 509.538 273.1 500.5 278.307C478.108 291.391 452.41 297.933 423.408 297.933C332.22 286.117 291.347 316.425 267.471 292.526C325.745 260.483 288.245 204.474 288.245 161.749C288.245 118.892 301.734 85.2462 328.713 60.8132C340.583 49.8651 354.41 41.654 370.193 36.1799C385.975 30.5724 402.567 27.7686 419.968 27.7686C436.835 27.7686 483.301 6.27269 483.301 6.27269C483.301 6.27269 492.593 43.9948 503.535 52.2016C525.253 68.4902 536.112 88.584 536.112 112.483C536.112 130.507 530.514 143.859 519.318 152.537C508.122 161.082 492.946 165.354 473.791 165.354C463.269 165.354 452.68 162.818 442.024 157.744C431.367 152.537 425.027 147.664 423.004 143.124C423.004 132.176 423.206 123.565 423.611 117.289C423.341 117.156 422.869 117.089 422.194 117.089H420.778C418.754 117.089 417.136 117.69 415.922 118.892C414.842 119.96 413.831 122.296 412.887 125.901C412.077 129.506 411.672 139.319 411.672 155.341C411.672 193.659 414.91 212.818 421.385 212.818Z" fill="#FF3030"/>
<path d="M219.584 30.5724C269.629 42.5884 271.788 38.3159 304.162 2.00026C312.795 12.6813 279.477 64.6183 279.477 80.6399V191.99C279.477 225.903 269.022 252.071 248.114 270.496C227.205 288.788 198.271 297.933 161.31 297.933C124.484 297.933 95.8186 288.921 75.3148 270.897C43.952 245.529 11.5364 238.813 6.3166 226.303C36.5328 234.848 43.952 209.928 43.952 191.99V113.284C59.8694 100.734 78.2824 94.4586 99.191 94.4586C116.727 94.4586 130.621 99.0648 140.873 108.277C151.125 117.356 156.251 131.175 156.251 149.733V202.404C157.735 203.472 159.421 204.006 161.31 204.006C163.333 204.006 164.749 203.539 165.559 202.605C166.503 201.536 166.975 199.601 166.975 196.797V85.4464C166.975 77.0351 166.57 70.3594 165.761 65.4194C164.952 60.4794 163.333 55.5394 160.905 50.5994C177.092 37.248 196.652 30.5724 219.584 30.5724Z" fill="#8F00FF"/>
<path d="M425.701 212.818C427.05 212.818 428.264 212.485 429.344 211.817V193.592C438.516 187.451 451.331 182.444 467.788 178.572C484.38 174.7 500.5 172.764 516.148 172.764C523.297 179.974 529.232 190.789 533.954 205.208C538.81 219.494 541.373 232.445 541.643 244.061C538.945 249.401 534.358 255.142 527.883 261.284C521.543 267.425 513.855 273.1 504.817 278.307C482.424 291.391 456.727 297.933 427.725 297.933C336.537 286.117 295.664 316.425 271.788 292.526C330.062 260.483 292.561 204.474 292.561 161.749C292.561 118.892 306.051 85.2462 333.029 60.8132C344.9 49.8651 358.727 41.654 374.509 36.1799C390.292 30.5724 406.884 27.7686 424.285 27.7686C441.151 27.7686 487.618 6.27269 487.618 6.27269C487.618 6.27269 496.91 43.9948 507.852 52.2016C529.57 68.4902 540.429 88.584 540.429 112.483C540.429 130.507 534.831 143.859 523.634 152.537C512.438 161.082 497.263 165.354 478.108 165.354C467.586 165.354 456.997 162.818 446.34 157.744C435.684 152.537 429.344 147.664 427.32 143.124C427.32 132.176 427.523 123.565 427.927 117.289C427.657 117.156 427.185 117.089 426.511 117.089H425.094C423.071 117.089 421.452 117.69 420.238 118.892C419.159 119.96 418.147 122.296 417.203 125.901C416.394 129.506 415.989 139.319 415.989 155.341C415.989 193.659 419.227 212.818 425.701 212.818Z" fill="#8F00FF"/>
<path d="M228.216 30.5721C278.262 42.5881 280.42 38.3157 312.795 2C321.428 12.6811 288.109 64.6181 288.109 80.6397V191.99C288.109 225.902 277.655 252.071 256.746 270.496C235.838 288.787 206.903 297.933 169.942 297.933C133.116 297.933 104.451 288.921 83.9475 270.896C52.5847 245.529 20.1691 238.812 14.9493 226.303C45.1655 234.848 52.5847 209.927 52.5847 191.99V113.284C68.5021 100.733 86.9151 94.4583 107.824 94.4583C125.36 94.4583 139.254 99.0646 149.506 108.277C159.758 117.356 164.884 131.175 164.884 149.733V202.404C166.368 203.472 168.054 204.006 169.942 204.006C171.966 204.006 173.382 203.539 174.191 202.604C175.136 201.536 175.608 199.6 175.608 196.796V85.4462C175.608 77.0348 175.203 70.3591 174.394 65.4191C173.584 60.4791 171.966 55.5391 169.538 50.5991C185.725 37.2478 205.284 30.5721 228.216 30.5721Z" fill="#F4FBE7"/>
<path d="M434.334 212.818C435.683 212.818 436.897 212.484 437.976 211.817V193.592C447.149 187.451 459.964 182.444 476.421 178.572C493.013 174.7 509.133 172.764 524.78 172.764C531.93 179.974 537.865 190.788 542.586 205.208C547.443 219.494 550.006 232.445 550.275 244.06C547.577 249.401 542.991 255.142 536.516 261.284C530.176 267.425 522.487 273.099 513.449 278.306C491.057 291.391 465.36 297.933 436.358 297.933C345.169 286.117 304.296 316.424 280.42 292.525C338.694 260.482 301.194 204.474 301.194 161.749C301.194 118.891 314.683 85.2459 341.662 60.8129C353.533 49.8648 367.359 41.6537 383.142 36.1797C398.924 30.5721 415.516 27.7683 432.918 27.7683C449.784 27.7683 496.25 6.27243 496.25 6.27243C496.25 6.27243 505.542 43.9946 516.484 52.2013C538.202 68.4899 549.061 88.5837 549.061 112.483C549.061 130.507 543.463 143.858 532.267 152.537C521.071 161.082 505.895 165.354 486.74 165.354C476.219 165.354 465.629 162.817 454.973 157.744C444.316 152.537 437.976 147.663 435.953 143.124C435.953 132.176 436.155 123.564 436.56 117.289C436.29 117.156 435.818 117.089 435.143 117.089H433.727C431.704 117.089 430.085 117.69 428.871 118.891C427.792 119.959 426.78 122.296 425.836 125.901C425.026 129.506 424.622 139.319 424.622 155.341C424.622 193.659 427.859 212.818 434.334 212.818Z" fill="#F4FBE7"/>
<path d="M215.267 30.5724C265.313 42.5884 267.471 38.3159 299.846 2.00026C308.479 12.6813 275.16 64.6183 275.16 80.6399V191.99C275.16 225.903 264.706 252.071 243.797 270.496C222.889 288.788 193.954 297.933 156.993 297.933C120.167 297.933 91.502 288.921 70.9982 270.897C39.6354 245.529 7.21981 238.813 2 226.303C32.2162 234.848 39.6354 209.928 39.6354 191.99V113.284C55.5528 100.734 73.9658 94.4586 94.8744 94.4586C112.411 94.4586 126.305 99.0648 136.557 108.277C146.808 117.356 151.934 131.175 151.934 149.733V202.404C153.418 203.472 155.104 204.006 156.993 204.006C159.016 204.006 160.433 203.539 161.242 202.605C162.186 201.536 162.659 199.601 162.659 196.797V85.4464C162.659 77.0351 162.254 70.3594 161.444 65.4194C160.635 60.4794 159.016 55.5394 156.588 50.5994C172.776 37.248 192.335 30.5724 215.267 30.5724Z" stroke="#ADFF00" stroke-width="2" mask="url(#path-1-outside-1_80_441)"/>
<path d="M421.385 212.818C422.734 212.818 423.948 212.485 425.027 211.817V193.592C434.2 187.451 447.015 182.444 463.472 178.572C480.064 174.7 496.183 172.764 511.831 172.764C518.981 179.974 524.916 190.789 529.637 205.208C534.493 219.494 537.056 232.445 537.326 244.061C534.628 249.401 530.042 255.142 523.567 261.284C517.227 267.425 509.538 273.1 500.5 278.307C478.108 291.391 452.41 297.933 423.408 297.933C332.22 286.117 291.347 316.425 267.471 292.526C325.745 260.483 288.245 204.474 288.245 161.749C288.245 118.892 301.734 85.2462 328.713 60.8132C340.583 49.8651 354.41 41.654 370.193 36.1799C385.975 30.5724 402.567 27.7686 419.968 27.7686C436.835 27.7686 483.301 6.27269 483.301 6.27269C483.301 6.27269 492.593 43.9948 503.535 52.2016C525.253 68.4902 536.112 88.584 536.112 112.483C536.112 130.507 530.514 143.859 519.318 152.537C508.122 161.082 492.946 165.354 473.791 165.354C463.269 165.354 452.68 162.818 442.024 157.744C431.367 152.537 425.027 147.664 423.004 143.124C423.004 132.176 423.206 123.565 423.611 117.289C423.341 117.156 422.869 117.089 422.194 117.089H420.778C418.754 117.089 417.136 117.69 415.922 118.892C414.842 119.96 413.831 122.296 412.887 125.901C412.077 129.506 411.672 139.319 411.672 155.341C411.672 193.659 414.91 212.818 421.385 212.818Z" stroke="#ADFF00" stroke-width="2" mask="url(#path-1-outside-1_80_441)"/>
<path d="M219.584 30.5724C269.629 42.5884 271.788 38.3159 304.162 2.00026C312.795 12.6813 279.477 64.6183 279.477 80.6399V191.99C279.477 225.903 269.022 252.071 248.114 270.496C227.205 288.788 198.271 297.933 161.31 297.933C124.484 297.933 95.8186 288.921 75.3148 270.897C43.952 245.529 11.5364 238.813 6.3166 226.303C36.5328 234.848 43.952 209.928 43.952 191.99V113.284C59.8694 100.734 78.2824 94.4586 99.191 94.4586C116.727 94.4586 130.621 99.0648 140.873 108.277C151.125 117.356 156.251 131.175 156.251 149.733V202.404C157.735 203.472 159.421 204.006 161.31 204.006C163.333 204.006 164.749 203.539 165.559 202.605C166.503 201.536 166.975 199.601 166.975 196.797V85.4464C166.975 77.0351 166.57 70.3594 165.761 65.4194C164.952 60.4794 163.333 55.5394 160.905 50.5994C177.092 37.248 196.652 30.5724 219.584 30.5724Z" stroke="#ADFF00" stroke-width="2" mask="url(#path-1-outside-1_80_441)"/>
<path d="M425.701 212.818C427.05 212.818 428.264 212.485 429.344 211.817V193.592C438.516 187.451 451.331 182.444 467.788 178.572C484.38 174.7 500.5 172.764 516.148 172.764C523.297 179.974 529.232 190.789 533.954 205.208C538.81 219.494 541.373 232.445 541.643 244.061C538.945 249.401 534.358 255.142 527.883 261.284C521.543 267.425 513.855 273.1 504.817 278.307C482.424 291.391 456.727 297.933 427.725 297.933C336.537 286.117 295.664 316.425 271.788 292.526C330.062 260.483 292.561 204.474 292.561 161.749C292.561 118.892 306.051 85.2462 333.029 60.8132C344.9 49.8651 358.727 41.654 374.509 36.1799C390.292 30.5724 406.884 27.7686 424.285 27.7686C441.151 27.7686 487.618 6.27269 487.618 6.27269C487.618 6.27269 496.91 43.9948 507.852 52.2016C529.57 68.4902 540.429 88.584 540.429 112.483C540.429 130.507 534.831 143.859 523.634 152.537C512.438 161.082 497.263 165.354 478.108 165.354C467.586 165.354 456.997 162.818 446.34 157.744C435.684 152.537 429.344 147.664 427.32 143.124C427.32 132.176 427.523 123.565 427.927 117.289C427.657 117.156 427.185 117.089 426.511 117.089H425.094C423.071 117.089 421.452 117.69 420.238 118.892C419.159 119.96 418.147 122.296 417.203 125.901C416.394 129.506 415.989 139.319 415.989 155.341C415.989 193.659 419.227 212.818 425.701 212.818Z" stroke="#ADFF00" stroke-width="2" mask="url(#path-1-outside-1_80_441)"/>
<path d="M228.216 30.5721C278.262 42.5881 280.42 38.3157 312.795 2C321.428 12.6811 288.109 64.6181 288.109 80.6397V191.99C288.109 225.902 277.655 252.071 256.746 270.496C235.838 288.787 206.903 297.933 169.942 297.933C133.116 297.933 104.451 288.921 83.9475 270.896C52.5847 245.529 20.1691 238.812 14.9493 226.303C45.1655 234.848 52.5847 209.927 52.5847 191.99V113.284C68.5021 100.733 86.9151 94.4583 107.824 94.4583C125.36 94.4583 139.254 99.0646 149.506 108.277C159.758 117.356 164.884 131.175 164.884 149.733V202.404C166.368 203.472 168.054 204.006 169.942 204.006C171.966 204.006 173.382 203.539 174.191 202.604C175.136 201.536 175.608 199.6 175.608 196.796V85.4462C175.608 77.0348 175.203 70.3591 174.394 65.4191C173.584 60.4791 171.966 55.5391 169.538 50.5991C185.725 37.2478 205.284 30.5721 228.216 30.5721Z" stroke="#ADFF00" stroke-width="2" mask="url(#path-1-outside-1_80_441)"/>
<path d="M434.334 212.818C435.683 212.818 436.897 212.484 437.976 211.817V193.592C447.149 187.451 459.964 182.444 476.421 178.572C493.013 174.7 509.133 172.764 524.78 172.764C531.93 179.974 537.865 190.788 542.586 205.208C547.443 219.494 550.006 232.445 550.275 244.06C547.577 249.401 542.991 255.142 536.516 261.284C530.176 267.425 522.487 273.099 513.449 278.306C491.057 291.391 465.36 297.933 436.358 297.933C345.169 286.117 304.296 316.424 280.42 292.525C338.694 260.482 301.194 204.474 301.194 161.749C301.194 118.891 314.683 85.2459 341.662 60.8129C353.533 49.8648 367.359 41.6537 383.142 36.1797C398.924 30.5721 415.516 27.7683 432.918 27.7683C449.784 27.7683 496.25 6.27243 496.25 6.27243C496.25 6.27243 505.542 43.9946 516.484 52.2013C538.202 68.4899 549.061 88.5837 549.061 112.483C549.061 130.507 543.463 143.858 532.267 152.537C521.071 161.082 505.895 165.354 486.74 165.354C476.219 165.354 465.629 162.817 454.973 157.744C444.316 152.537 437.976 147.663 435.953 143.124C435.953 132.176 436.155 123.564 436.56 117.289C436.29 117.156 435.818 117.089 435.143 117.089H433.727C431.704 117.089 430.085 117.69 428.871 118.891C427.792 119.959 426.78 122.296 425.836 125.901C425.026 129.506 424.622 139.319 424.622 155.341C424.622 193.659 427.859 212.818 434.334 212.818Z" stroke="#ADFF00" stroke-width="2" mask="url(#path-1-outside-1_80_441)"/>
</svg>
