<svg width="536" height="300" viewBox="0 0 536 300" fill="none" xmlns="http://www.w3.org/2000/svg">
<path d="M213.267 28.5721C263.313 40.5881 265.471 36.3157 297.846 0C306.479 10.6811 273.16 62.6181 273.16 78.6397V189.99C273.16 223.902 262.706 250.071 241.797 268.496C220.889 286.787 191.954 295.933 154.993 295.933C118.167 295.933 89.502 286.921 68.9982 268.896C37.6354 243.529 5.21981 236.812 0 224.303C30.2162 232.848 37.6354 207.927 37.6354 189.99V111.284C53.5528 98.7335 71.9658 92.4583 92.8744 92.4583C110.411 92.4583 124.305 97.0645 134.557 106.277C144.808 115.356 149.934 129.175 149.934 147.733V200.404C151.418 201.472 153.104 202.006 154.993 202.006C157.016 202.006 158.433 201.539 159.242 200.604C160.186 199.536 160.659 197.6 160.659 194.796V83.4462C160.659 75.0348 160.254 68.3591 159.444 63.4191C158.635 58.4791 157.016 53.5391 154.588 48.5991C170.776 35.2478 190.335 28.5721 213.267 28.5721Z" fill="#838383" fill-opacity="0.25"/>
<path d="M419.385 210.818C420.734 210.818 421.948 210.484 423.027 209.817V191.592C432.2 185.451 445.015 180.444 461.472 176.572C478.064 172.7 494.183 170.764 509.831 170.764C516.98 177.974 522.916 188.788 527.637 203.208C532.493 217.494 535.056 230.445 535.326 242.06C532.628 247.401 528.042 253.142 521.567 259.284C515.227 265.425 507.538 271.099 498.5 276.306C476.108 289.391 450.41 295.933 421.408 295.933C330.22 284.117 289.347 314.424 265.471 290.525C323.745 258.482 286.245 202.473 286.245 159.749C286.245 116.891 299.734 83.2459 326.713 58.8129C338.583 47.8648 352.41 39.6537 368.193 34.1797C383.975 28.5721 400.567 25.7683 417.968 25.7683C434.835 25.7683 481.301 4.27243 481.301 4.27243C481.301 4.27243 490.593 41.9946 501.535 50.2013C523.253 66.4899 534.112 86.5837 534.112 110.483C534.112 128.507 528.514 141.858 517.318 150.537C506.122 159.082 490.946 163.354 471.791 163.354C461.269 163.354 450.68 160.817 440.024 155.744C429.367 150.537 423.027 145.663 421.004 141.124C421.004 130.176 421.206 121.564 421.611 115.289C421.341 115.156 420.869 115.089 420.194 115.089H418.778C416.754 115.089 415.136 115.69 413.922 116.891C412.842 117.959 411.831 120.296 410.887 123.901C410.077 127.506 409.672 137.319 409.672 153.341C409.672 191.659 412.91 210.818 419.385 210.818Z" fill="#838383" fill-opacity="0.25"/>
</svg>
