<svg width="321" height="177" viewBox="0 0 321 177" fill="none" xmlns="http://www.w3.org/2000/svg">
<mask id="path-1-outside-1_3_1324" maskUnits="userSpaceOnUse" x="0" y="0" width="322" height="177" fill="black">
<rect fill="white" width="322" height="177"/>
<path d="M125.695 18.572C154.721 25.5413 155.973 23.0632 174.75 2.00015C179.758 8.19518 160.433 38.3186 160.433 47.6112V112.194C160.433 131.864 154.369 147.041 142.242 157.728C130.115 168.337 113.333 173.641 91.8959 173.641C70.5369 173.641 53.9112 168.414 42.0189 157.96C23.8285 143.247 5.02749 139.351 2 132.096C19.5254 137.052 23.8285 122.598 23.8285 112.194V66.5447C33.0606 59.2656 43.7402 55.626 55.8671 55.626C66.0381 55.626 74.0967 58.2976 80.0428 63.6408C85.9889 68.9066 88.962 76.9214 88.962 87.6853V118.234C89.8226 118.854 90.8006 119.164 91.8959 119.164C93.0695 119.164 93.891 118.893 94.3604 118.351C94.9081 117.731 95.182 116.608 95.182 114.982V50.3989C95.182 45.5203 94.9472 41.6485 94.4778 38.7832C94.0084 35.918 93.0695 33.0528 91.6612 30.1876C101.05 22.4439 112.394 18.572 125.695 18.572Z"/>
<path d="M245.243 124.275C246.026 124.275 246.73 124.081 247.356 123.694V113.124C252.676 109.561 260.108 106.658 269.654 104.412C279.277 102.166 288.626 101.043 297.702 101.043C301.849 105.225 305.291 111.497 308.03 119.861C310.846 128.147 312.333 135.658 312.489 142.395C310.924 145.493 308.264 148.822 304.509 152.385C300.832 155.947 296.372 159.238 291.13 162.258C278.142 169.847 263.238 173.641 246.417 173.641C193.528 166.788 169.821 184.366 155.973 170.505C189.772 151.92 168.022 119.435 168.022 94.6547C168.022 69.7971 175.846 50.2828 191.493 36.1116C198.378 29.7617 206.398 24.9993 215.552 21.8244C224.706 18.572 234.329 16.9458 244.422 16.9458C254.204 16.9458 281.155 4.47816 281.155 4.47816C281.155 4.47816 286.544 26.357 292.89 31.1169C305.487 40.5643 311.785 52.2187 311.785 66.0801C311.785 76.5342 308.538 84.278 302.044 89.3115C295.55 94.2675 286.749 96.7455 275.639 96.7455C269.536 96.7455 263.395 95.2742 257.214 92.3315C251.033 89.3115 247.356 86.485 246.182 83.8521C246.182 77.5022 246.299 72.5074 246.534 68.8679C246.378 68.7904 246.104 68.7517 245.713 68.7517H244.891C243.718 68.7517 242.779 69.1002 242.075 69.7971C241.449 70.4166 240.862 71.7718 240.314 73.8626C239.845 75.9534 239.61 81.6451 239.61 90.9377C239.61 113.162 241.488 124.275 245.243 124.275Z"/>
<path d="M128.199 18.572C157.225 25.5413 158.477 23.0632 177.254 2.00015C182.261 8.19518 162.936 38.3186 162.936 47.6112V112.194C162.936 131.864 156.873 147.041 144.746 157.728C132.619 168.337 115.837 173.641 94.3996 173.641C73.0405 173.641 56.4148 168.414 44.5226 157.96C26.3321 143.247 7.53112 139.351 4.50363 132.096C22.029 137.052 26.3321 122.598 26.3321 112.194V66.5447C35.5643 59.2656 46.2438 55.626 58.3708 55.626C68.5418 55.626 76.6003 58.2976 82.5464 63.6408C88.4926 68.9066 91.4656 76.9214 91.4656 87.6853V118.234C92.3262 118.854 93.3042 119.164 94.3996 119.164C95.5731 119.164 96.3946 118.893 96.8641 118.351C97.4117 117.731 97.6856 116.608 97.6856 114.982V50.3989C97.6856 45.5203 97.4509 41.6485 96.9814 38.7832C96.512 35.918 95.5731 33.0528 94.1649 30.1876C103.553 22.4439 114.898 18.572 128.199 18.572Z"/>
<path d="M247.747 124.275C248.529 124.275 249.233 124.081 249.859 123.694V113.124C255.179 109.561 262.612 106.658 272.157 104.412C281.781 102.166 291.13 101.043 300.206 101.043C304.352 105.225 307.795 111.497 310.533 119.861C313.35 128.147 314.836 135.658 314.993 142.395C313.428 145.493 310.768 148.822 307.012 152.385C303.335 155.947 298.876 159.238 293.634 162.258C280.646 169.847 265.742 173.641 248.92 173.641C196.031 166.788 172.325 184.366 158.477 170.505C192.276 151.92 170.526 119.435 170.526 94.6547C170.526 69.7971 178.349 50.2828 193.997 36.1116C200.882 29.7617 208.901 24.9993 218.055 21.8244C227.209 18.572 236.833 16.9458 246.925 16.9458C256.708 16.9458 283.658 4.47816 283.658 4.47816C283.658 4.47816 289.048 26.357 295.394 31.1169C307.99 40.5643 314.289 52.2187 314.289 66.0801C314.289 76.5342 311.042 84.278 304.548 89.3115C298.054 94.2675 289.252 96.7455 278.142 96.7455C272.04 96.7455 265.898 95.2742 259.717 92.3315C253.536 89.3115 249.859 86.485 248.686 83.8521C248.686 77.5022 248.803 72.5074 249.038 68.8679C248.881 68.7904 248.607 68.7517 248.216 68.7517H247.395C246.221 68.7517 245.282 69.1002 244.578 69.7971C243.952 70.4166 243.365 71.7718 242.818 73.8626C242.348 75.9534 242.114 81.6451 242.114 90.9377C242.114 113.162 243.991 124.275 247.747 124.275Z"/>
<path d="M133.206 18.5718C162.232 25.5411 163.484 23.0631 182.261 2C187.268 8.19503 167.943 38.3185 167.943 47.611V112.194C167.943 131.863 161.88 147.041 149.753 157.728C137.626 168.337 120.844 173.641 99.4065 173.641C78.0474 173.641 61.4218 168.414 49.5295 157.96C31.3391 143.247 12.5381 139.351 9.51058 132.096C27.036 137.052 31.3391 122.598 31.3391 112.194V66.5446C40.5712 59.2654 51.2508 55.6258 63.3777 55.6258C73.5487 55.6258 81.6073 58.2974 87.5534 63.6407C93.4995 68.9064 96.4726 76.9212 96.4726 87.6851V118.234C97.3332 118.854 98.3112 119.164 99.4065 119.164C100.58 119.164 101.402 118.893 101.871 118.351C102.419 117.731 102.693 116.608 102.693 114.982V50.3988C102.693 45.5202 102.458 41.6483 101.988 38.7831C101.519 35.9179 100.58 33.0527 99.1718 30.1875C108.56 22.4437 119.905 18.5718 133.206 18.5718Z"/>
<path d="M252.754 124.274C253.536 124.274 254.24 124.081 254.866 123.694V113.123C260.186 109.561 267.619 106.657 277.164 104.412C286.787 102.166 296.137 101.043 305.213 101.043C309.359 105.225 312.802 111.497 315.54 119.861C318.357 128.146 319.843 135.658 320 142.395C318.435 145.492 315.775 148.822 312.019 152.384C308.342 155.947 303.883 159.238 298.641 162.258C285.653 169.847 270.749 173.641 253.927 173.641C201.038 166.788 177.332 184.366 163.484 170.505C197.283 151.92 175.532 119.435 175.532 94.6545C175.532 69.797 183.356 50.2826 199.004 36.1115C205.889 29.7616 213.908 24.9992 223.062 21.8242C232.216 18.5718 241.84 16.9456 251.932 16.9456C261.715 16.9456 288.665 4.47801 288.665 4.47801C288.665 4.47801 294.055 26.3569 300.401 31.1167C312.997 40.5642 319.296 52.2186 319.296 66.0799C319.296 76.5341 316.049 84.2778 309.555 89.3113C303.061 94.2673 294.259 96.7453 283.149 96.7453C277.047 96.7453 270.905 95.274 264.724 92.3314C258.543 89.3113 254.866 86.4848 253.693 83.8519C253.693 77.502 253.81 72.5073 254.045 68.8677C253.888 68.7903 253.614 68.7516 253.223 68.7516H252.402C251.228 68.7516 250.289 69.1 249.585 69.797C248.959 70.4165 248.372 71.7716 247.825 73.8625C247.355 75.9533 247.121 81.645 247.121 90.9375C247.121 113.162 248.998 124.274 252.754 124.274Z"/>
</mask>
<path d="M125.695 18.572C154.721 25.5413 155.973 23.0632 174.75 2.00015C179.758 8.19518 160.433 38.3186 160.433 47.6112V112.194C160.433 131.864 154.369 147.041 142.242 157.728C130.115 168.337 113.333 173.641 91.8959 173.641C70.5369 173.641 53.9112 168.414 42.0189 157.96C23.8285 143.247 5.02749 139.351 2 132.096C19.5254 137.052 23.8285 122.598 23.8285 112.194V66.5447C33.0606 59.2656 43.7402 55.626 55.8671 55.626C66.0381 55.626 74.0967 58.2976 80.0428 63.6408C85.9889 68.9066 88.962 76.9214 88.962 87.6853V118.234C89.8226 118.854 90.8006 119.164 91.8959 119.164C93.0695 119.164 93.891 118.893 94.3604 118.351C94.9081 117.731 95.182 116.608 95.182 114.982V50.3989C95.182 45.5203 94.9472 41.6485 94.4778 38.7832C94.0084 35.918 93.0695 33.0528 91.6612 30.1876C101.05 22.4439 112.394 18.572 125.695 18.572Z" fill="#FF3030"/>
<path d="M245.243 124.275C246.026 124.275 246.73 124.081 247.356 123.694V113.124C252.676 109.561 260.108 106.658 269.654 104.412C279.277 102.166 288.626 101.043 297.702 101.043C301.849 105.225 305.291 111.497 308.03 119.861C310.846 128.147 312.333 135.658 312.489 142.395C310.924 145.493 308.264 148.822 304.509 152.385C300.832 155.947 296.372 159.238 291.13 162.258C278.142 169.847 263.238 173.641 246.417 173.641C193.528 166.788 169.821 184.366 155.973 170.505C189.772 151.92 168.022 119.435 168.022 94.6547C168.022 69.7971 175.846 50.2828 191.493 36.1116C198.378 29.7617 206.398 24.9993 215.552 21.8244C224.706 18.572 234.329 16.9458 244.422 16.9458C254.204 16.9458 281.155 4.47816 281.155 4.47816C281.155 4.47816 286.544 26.357 292.89 31.1169C305.487 40.5643 311.785 52.2187 311.785 66.0801C311.785 76.5342 308.538 84.278 302.044 89.3115C295.55 94.2675 286.749 96.7455 275.639 96.7455C269.536 96.7455 263.395 95.2742 257.214 92.3315C251.033 89.3115 247.356 86.485 246.182 83.8521C246.182 77.5022 246.299 72.5074 246.534 68.8679C246.378 68.7904 246.104 68.7517 245.713 68.7517H244.891C243.718 68.7517 242.779 69.1002 242.075 69.7971C241.449 70.4166 240.862 71.7718 240.314 73.8626C239.845 75.9534 239.61 81.6451 239.61 90.9377C239.61 113.162 241.488 124.275 245.243 124.275Z" fill="#FF3030"/>
<path d="M128.199 18.572C157.225 25.5413 158.477 23.0632 177.254 2.00015C182.261 8.19518 162.936 38.3186 162.936 47.6112V112.194C162.936 131.864 156.873 147.041 144.746 157.728C132.619 168.337 115.837 173.641 94.3996 173.641C73.0405 173.641 56.4148 168.414 44.5226 157.96C26.3321 143.247 7.53112 139.351 4.50363 132.096C22.029 137.052 26.3321 122.598 26.3321 112.194V66.5447C35.5643 59.2656 46.2438 55.626 58.3708 55.626C68.5418 55.626 76.6003 58.2976 82.5464 63.6408C88.4926 68.9066 91.4656 76.9214 91.4656 87.6853V118.234C92.3262 118.854 93.3042 119.164 94.3996 119.164C95.5731 119.164 96.3946 118.893 96.8641 118.351C97.4117 117.731 97.6856 116.608 97.6856 114.982V50.3989C97.6856 45.5203 97.4509 41.6485 96.9814 38.7832C96.512 35.918 95.5731 33.0528 94.1649 30.1876C103.553 22.4439 114.898 18.572 128.199 18.572Z" fill="#8F00FF"/>
<path d="M247.747 124.275C248.529 124.275 249.233 124.081 249.859 123.694V113.124C255.179 109.561 262.612 106.658 272.157 104.412C281.781 102.166 291.13 101.043 300.206 101.043C304.352 105.225 307.795 111.497 310.533 119.861C313.35 128.147 314.836 135.658 314.993 142.395C313.428 145.493 310.768 148.822 307.012 152.385C303.335 155.947 298.876 159.238 293.634 162.258C280.646 169.847 265.742 173.641 248.92 173.641C196.031 166.788 172.325 184.366 158.477 170.505C192.276 151.92 170.526 119.435 170.526 94.6547C170.526 69.7971 178.349 50.2828 193.997 36.1116C200.882 29.7617 208.901 24.9993 218.055 21.8244C227.209 18.572 236.833 16.9458 246.925 16.9458C256.708 16.9458 283.658 4.47816 283.658 4.47816C283.658 4.47816 289.048 26.357 295.394 31.1169C307.99 40.5643 314.289 52.2187 314.289 66.0801C314.289 76.5342 311.042 84.278 304.548 89.3115C298.054 94.2675 289.252 96.7455 278.142 96.7455C272.04 96.7455 265.898 95.2742 259.717 92.3315C253.536 89.3115 249.859 86.485 248.686 83.8521C248.686 77.5022 248.803 72.5074 249.038 68.8679C248.881 68.7904 248.607 68.7517 248.216 68.7517H247.395C246.221 68.7517 245.282 69.1002 244.578 69.7971C243.952 70.4166 243.365 71.7718 242.818 73.8626C242.348 75.9534 242.114 81.6451 242.114 90.9377C242.114 113.162 243.991 124.275 247.747 124.275Z" fill="#8F00FF"/>
<path d="M133.206 18.5718C162.232 25.5411 163.484 23.0631 182.261 2C187.268 8.19503 167.943 38.3185 167.943 47.611V112.194C167.943 131.863 161.88 147.041 149.753 157.728C137.626 168.337 120.844 173.641 99.4065 173.641C78.0474 173.641 61.4218 168.414 49.5295 157.96C31.3391 143.247 12.5381 139.351 9.51058 132.096C27.036 137.052 31.3391 122.598 31.3391 112.194V66.5446C40.5712 59.2654 51.2508 55.6258 63.3777 55.6258C73.5487 55.6258 81.6073 58.2974 87.5534 63.6407C93.4995 68.9064 96.4726 76.9212 96.4726 87.6851V118.234C97.3332 118.854 98.3112 119.164 99.4065 119.164C100.58 119.164 101.402 118.893 101.871 118.351C102.419 117.731 102.693 116.608 102.693 114.982V50.3988C102.693 45.5202 102.458 41.6483 101.988 38.7831C101.519 35.9179 100.58 33.0527 99.1718 30.1875C108.56 22.4437 119.905 18.5718 133.206 18.5718Z" fill="#ADFF00"/>
<path d="M252.754 124.274C253.536 124.274 254.24 124.081 254.866 123.694V113.123C260.186 109.561 267.619 106.657 277.164 104.412C286.787 102.166 296.137 101.043 305.213 101.043C309.359 105.225 312.802 111.497 315.54 119.861C318.357 128.146 319.843 135.658 320 142.395C318.435 145.492 315.775 148.822 312.019 152.384C308.342 155.947 303.883 159.238 298.641 162.258C285.653 169.847 270.749 173.641 253.927 173.641C201.038 166.788 177.332 184.366 163.484 170.505C197.283 151.92 175.532 119.435 175.532 94.6545C175.532 69.797 183.356 50.2826 199.004 36.1115C205.889 29.7616 213.908 24.9992 223.062 21.8242C232.216 18.5718 241.84 16.9456 251.932 16.9456C261.715 16.9456 288.665 4.47801 288.665 4.47801C288.665 4.47801 294.055 26.3569 300.401 31.1167C312.997 40.5642 319.296 52.2186 319.296 66.0799C319.296 76.5341 316.049 84.2778 309.555 89.3113C303.061 94.2673 294.259 96.7453 283.149 96.7453C277.047 96.7453 270.905 95.274 264.724 92.3314C258.543 89.3113 254.866 86.4848 253.693 83.8519C253.693 77.502 253.81 72.5073 254.045 68.8677C253.888 68.7903 253.614 68.7516 253.223 68.7516H252.402C251.228 68.7516 250.289 69.1 249.585 69.797C248.959 70.4165 248.372 71.7716 247.825 73.8625C247.355 75.9533 247.121 81.645 247.121 90.9375C247.121 113.162 248.998 124.274 252.754 124.274Z" fill="#ADFF00"/>
<path d="M125.695 18.572C154.721 25.5413 155.973 23.0632 174.75 2.00015C179.758 8.19518 160.433 38.3186 160.433 47.6112V112.194C160.433 131.864 154.369 147.041 142.242 157.728C130.115 168.337 113.333 173.641 91.8959 173.641C70.5369 173.641 53.9112 168.414 42.0189 157.96C23.8285 143.247 5.02749 139.351 2 132.096C19.5254 137.052 23.8285 122.598 23.8285 112.194V66.5447C33.0606 59.2656 43.7402 55.626 55.8671 55.626C66.0381 55.626 74.0967 58.2976 80.0428 63.6408C85.9889 68.9066 88.962 76.9214 88.962 87.6853V118.234C89.8226 118.854 90.8006 119.164 91.8959 119.164C93.0695 119.164 93.891 118.893 94.3604 118.351C94.9081 117.731 95.182 116.608 95.182 114.982V50.3989C95.182 45.5203 94.9472 41.6485 94.4778 38.7832C94.0084 35.918 93.0695 33.0528 91.6612 30.1876C101.05 22.4439 112.394 18.572 125.695 18.572Z" stroke="black" stroke-width="2" mask="url(#path-1-outside-1_3_1324)"/>
<path d="M245.243 124.275C246.026 124.275 246.73 124.081 247.356 123.694V113.124C252.676 109.561 260.108 106.658 269.654 104.412C279.277 102.166 288.626 101.043 297.702 101.043C301.849 105.225 305.291 111.497 308.03 119.861C310.846 128.147 312.333 135.658 312.489 142.395C310.924 145.493 308.264 148.822 304.509 152.385C300.832 155.947 296.372 159.238 291.13 162.258C278.142 169.847 263.238 173.641 246.417 173.641C193.528 166.788 169.821 184.366 155.973 170.505C189.772 151.92 168.022 119.435 168.022 94.6547C168.022 69.7971 175.846 50.2828 191.493 36.1116C198.378 29.7617 206.398 24.9993 215.552 21.8244C224.706 18.572 234.329 16.9458 244.422 16.9458C254.204 16.9458 281.155 4.47816 281.155 4.47816C281.155 4.47816 286.544 26.357 292.89 31.1169C305.487 40.5643 311.785 52.2187 311.785 66.0801C311.785 76.5342 308.538 84.278 302.044 89.3115C295.55 94.2675 286.749 96.7455 275.639 96.7455C269.536 96.7455 263.395 95.2742 257.214 92.3315C251.033 89.3115 247.356 86.485 246.182 83.8521C246.182 77.5022 246.299 72.5074 246.534 68.8679C246.378 68.7904 246.104 68.7517 245.713 68.7517H244.891C243.718 68.7517 242.779 69.1002 242.075 69.7971C241.449 70.4166 240.862 71.7718 240.314 73.8626C239.845 75.9534 239.61 81.6451 239.61 90.9377C239.61 113.162 241.488 124.275 245.243 124.275Z" stroke="black" stroke-width="2" mask="url(#path-1-outside-1_3_1324)"/>
<path d="M128.199 18.572C157.225 25.5413 158.477 23.0632 177.254 2.00015C182.261 8.19518 162.936 38.3186 162.936 47.6112V112.194C162.936 131.864 156.873 147.041 144.746 157.728C132.619 168.337 115.837 173.641 94.3996 173.641C73.0405 173.641 56.4148 168.414 44.5226 157.96C26.3321 143.247 7.53112 139.351 4.50363 132.096C22.029 137.052 26.3321 122.598 26.3321 112.194V66.5447C35.5643 59.2656 46.2438 55.626 58.3708 55.626C68.5418 55.626 76.6003 58.2976 82.5464 63.6408C88.4926 68.9066 91.4656 76.9214 91.4656 87.6853V118.234C92.3262 118.854 93.3042 119.164 94.3996 119.164C95.5731 119.164 96.3946 118.893 96.8641 118.351C97.4117 117.731 97.6856 116.608 97.6856 114.982V50.3989C97.6856 45.5203 97.4509 41.6485 96.9814 38.7832C96.512 35.918 95.5731 33.0528 94.1649 30.1876C103.553 22.4439 114.898 18.572 128.199 18.572Z" stroke="black" stroke-width="2" mask="url(#path-1-outside-1_3_1324)"/>
<path d="M247.747 124.275C248.529 124.275 249.233 124.081 249.859 123.694V113.124C255.179 109.561 262.612 106.658 272.157 104.412C281.781 102.166 291.13 101.043 300.206 101.043C304.352 105.225 307.795 111.497 310.533 119.861C313.35 128.147 314.836 135.658 314.993 142.395C313.428 145.493 310.768 148.822 307.012 152.385C303.335 155.947 298.876 159.238 293.634 162.258C280.646 169.847 265.742 173.641 248.92 173.641C196.031 166.788 172.325 184.366 158.477 170.505C192.276 151.92 170.526 119.435 170.526 94.6547C170.526 69.7971 178.349 50.2828 193.997 36.1116C200.882 29.7617 208.901 24.9993 218.055 21.8244C227.209 18.572 236.833 16.9458 246.925 16.9458C256.708 16.9458 283.658 4.47816 283.658 4.47816C283.658 4.47816 289.048 26.357 295.394 31.1169C307.99 40.5643 314.289 52.2187 314.289 66.0801C314.289 76.5342 311.042 84.278 304.548 89.3115C298.054 94.2675 289.252 96.7455 278.142 96.7455C272.04 96.7455 265.898 95.2742 259.717 92.3315C253.536 89.3115 249.859 86.485 248.686 83.8521C248.686 77.5022 248.803 72.5074 249.038 68.8679C248.881 68.7904 248.607 68.7517 248.216 68.7517H247.395C246.221 68.7517 245.282 69.1002 244.578 69.7971C243.952 70.4166 243.365 71.7718 242.818 73.8626C242.348 75.9534 242.114 81.6451 242.114 90.9377C242.114 113.162 243.991 124.275 247.747 124.275Z" stroke="black" stroke-width="2" mask="url(#path-1-outside-1_3_1324)"/>
<path d="M133.206 18.5718C162.232 25.5411 163.484 23.0631 182.261 2C187.268 8.19503 167.943 38.3185 167.943 47.611V112.194C167.943 131.863 161.88 147.041 149.753 157.728C137.626 168.337 120.844 173.641 99.4065 173.641C78.0474 173.641 61.4218 168.414 49.5295 157.96C31.3391 143.247 12.5381 139.351 9.51058 132.096C27.036 137.052 31.3391 122.598 31.3391 112.194V66.5446C40.5712 59.2654 51.2508 55.6258 63.3777 55.6258C73.5487 55.6258 81.6073 58.2974 87.5534 63.6407C93.4995 68.9064 96.4726 76.9212 96.4726 87.6851V118.234C97.3332 118.854 98.3112 119.164 99.4065 119.164C100.58 119.164 101.402 118.893 101.871 118.351C102.419 117.731 102.693 116.608 102.693 114.982V50.3988C102.693 45.5202 102.458 41.6483 101.988 38.7831C101.519 35.9179 100.58 33.0527 99.1718 30.1875C108.56 22.4437 119.905 18.5718 133.206 18.5718Z" stroke="black" stroke-width="2" mask="url(#path-1-outside-1_3_1324)"/>
<path d="M252.754 124.274C253.536 124.274 254.24 124.081 254.866 123.694V113.123C260.186 109.561 267.619 106.657 277.164 104.412C286.787 102.166 296.137 101.043 305.213 101.043C309.359 105.225 312.802 111.497 315.54 119.861C318.357 128.146 319.843 135.658 320 142.395C318.435 145.492 315.775 148.822 312.019 152.384C308.342 155.947 303.883 159.238 298.641 162.258C285.653 169.847 270.749 173.641 253.927 173.641C201.038 166.788 177.332 184.366 163.484 170.505C197.283 151.92 175.532 119.435 175.532 94.6545C175.532 69.797 183.356 50.2826 199.004 36.1115C205.889 29.7616 213.908 24.9992 223.062 21.8242C232.216 18.5718 241.84 16.9456 251.932 16.9456C261.715 16.9456 288.665 4.47801 288.665 4.47801C288.665 4.47801 294.055 26.3569 300.401 31.1167C312.997 40.5642 319.296 52.2186 319.296 66.0799C319.296 76.5341 316.049 84.2778 309.555 89.3113C303.061 94.2673 294.259 96.7453 283.149 96.7453C277.047 96.7453 270.905 95.274 264.724 92.3314C258.543 89.3113 254.866 86.4848 253.693 83.8519C253.693 77.502 253.81 72.5073 254.045 68.8677C253.888 68.7903 253.614 68.7516 253.223 68.7516H252.402C251.228 68.7516 250.289 69.1 249.585 69.797C248.959 70.4165 248.372 71.7716 247.825 73.8625C247.355 75.9533 247.121 81.645 247.121 90.9375C247.121 113.162 248.998 124.274 252.754 124.274Z" stroke="black" stroke-width="2" mask="url(#path-1-outside-1_3_1324)"/>
</svg>
