<svg width="24" height="24" viewBox="0 0 24 24" fill="none" xmlns="http://www.w3.org/2000/svg">
<path d="M2.28618 14.5001L1.55563 14.6698L2.28618 14.5001ZM2.28618 9.49988L3.01674 9.66956L2.28618 9.49988ZM17.53 9.49988L16.7994 9.66957L17.53 9.49988ZM17.53 14.5001L16.7994 14.3304L17.53 14.5001ZM12.2757 19.7231L12.1028 18.9933L12.2757 19.7231ZM7.54051 19.7231L7.7134 18.9933H7.7134L7.54051 19.7231ZM7.54051 4.27693L7.7134 5.00673V5.00673L7.54051 4.27693ZM12.2757 4.27693L12.1028 5.00673V5.00673L12.2757 4.27693ZM7.30354 19.6669L7.13065 20.3967H7.13066L7.30354 19.6669ZM12.5126 19.6669L12.6855 20.3967L12.5126 19.6669ZM12.5126 4.33306L12.6855 3.60326V3.60326L12.5126 4.33306ZM7.30354 4.33306L7.13065 3.60326V3.60326L7.30354 4.33306ZM17.2004 15.55L16.5041 15.2714L16.0932 16.2979L17.1989 16.3L17.2004 15.55ZM18.6429 15.5503V16.3003V15.5503ZM21.9308 12.7308L22.6675 12.8716V12.8716L21.9308 12.7308ZM21.9308 11.2692L22.6675 11.1284V11.1284L21.9308 11.2692ZM17.2004 8.44996L17.1989 7.69996L16.0932 7.70211L16.5041 8.72862L17.2004 8.44996ZM12.0724 10.2249C12.0724 9.81066 11.7366 9.47487 11.3224 9.47487C10.9082 9.47487 10.5724 9.81066 10.5724 10.2249H12.0724ZM10.5724 13.7751C10.5724 14.1893 10.9082 14.5251 11.3224 14.5251C11.7366 14.5251 12.0724 14.1893 12.0724 13.7751H10.5724ZM8.67821 10.5799C8.67821 10.1657 8.34242 9.8299 7.92821 9.8299C7.51399 9.8299 7.17821 10.1657 7.17821 10.5799H8.67821ZM7.17821 13.4201C7.17821 13.8343 7.51399 14.1701 7.92821 14.1701C8.34242 14.1701 8.67821 13.8343 8.67821 13.4201H7.17821ZM7.47643 5.06286L7.7134 5.00673L7.36763 3.54712L7.13065 3.60326L7.47643 5.06286ZM12.1028 5.00673L12.3397 5.06286L12.6855 3.60326L12.4485 3.54712L12.1028 5.00673ZM12.3397 18.9371L12.1028 18.9933L12.4485 20.4529L12.6855 20.3967L12.3397 18.9371ZM7.7134 18.9933L7.47643 18.9371L7.13066 20.3967L7.36763 20.4529L7.7134 18.9933ZM3.01674 14.3304C2.66109 12.7992 2.66109 11.2008 3.01674 9.66956L1.55563 9.3302C1.14812 11.0847 1.14812 12.9153 1.55563 14.6698L3.01674 14.3304ZM16.7994 9.66957C17.1551 11.2008 17.1551 12.7992 16.7994 14.3304L18.2605 14.6698C18.668 12.9153 18.668 11.0847 18.2605 9.3302L16.7994 9.66957ZM12.1028 18.9933C10.6578 19.3356 9.15836 19.3356 7.7134 18.9933L7.36763 20.4529C9.03996 20.849 10.7762 20.849 12.4485 20.4529L12.1028 18.9933ZM7.7134 5.00673C9.15836 4.66442 10.6578 4.66442 12.1028 5.00673L12.4485 3.54712C10.7762 3.15096 9.03996 3.15096 7.36763 3.54712L7.7134 5.00673ZM7.47643 18.9371C5.29311 18.4199 3.55465 16.6464 3.01674 14.3304L1.55563 14.6698C2.21572 17.5118 4.36471 19.7415 7.13065 20.3967L7.47643 18.9371ZM12.6855 20.3967C15.4515 19.7415 17.6004 17.5118 18.2605 14.6698L16.7994 14.3304C16.2615 16.6464 14.5231 18.4199 12.3397 18.9371L12.6855 20.3967ZM12.3397 5.06286C14.5231 5.58008 16.2615 7.35361 16.7994 9.66957L18.2605 9.3302C17.6004 6.48823 15.4515 4.2585 12.6855 3.60326L12.3397 5.06286ZM7.13065 3.60326C4.36471 4.2585 2.21572 6.48822 1.55563 9.3302L3.01674 9.66956C3.55465 7.3536 5.29311 5.58008 7.47643 5.06286L7.13065 3.60326ZM17.1989 16.3C17.3103 16.3003 17.4259 16.3003 17.545 16.3003V14.8003C17.4256 14.8003 17.3115 14.8003 17.2018 14.8L17.1989 16.3ZM17.545 16.3003H18.6429V14.8003H17.545V16.3003ZM18.6429 16.3003C20.6241 16.3003 22.2909 14.8415 22.6675 12.8716L21.1942 12.5899C20.9439 13.8989 19.8583 14.8003 18.6429 14.8003L18.6429 16.3003ZM22.6675 12.8716C22.7775 12.2962 22.7775 11.7038 22.6675 11.1284L21.1942 11.4101C21.2686 11.7994 21.2686 12.2006 21.1942 12.5899L22.6675 12.8716ZM22.6675 11.1284C22.2909 9.15854 20.6241 7.69974 18.6429 7.69974V9.19974C19.8583 9.19974 20.9439 10.1011 21.1942 11.4101L22.6675 11.1284ZM18.6429 7.69974H17.545V9.19974H18.6429V7.69974ZM17.545 7.69974C17.4259 7.69974 17.3103 7.69974 17.1989 7.69996L17.2018 9.19995C17.3115 9.19974 17.4256 9.19974 17.545 9.19974V7.69974ZM16.5041 8.72862C16.6248 9.03034 16.724 9.34466 16.7994 9.66957L18.2605 9.3302C18.1678 8.93084 18.0457 8.54366 17.8967 8.17129L16.5041 8.72862ZM16.7994 14.3304C16.724 14.6553 16.6248 14.9697 16.5041 15.2714L17.8967 15.8287C18.0457 15.4563 18.1678 15.0692 18.2605 14.6698L16.7994 14.3304ZM10.5724 10.2249V13.7751H12.0724V10.2249H10.5724ZM7.17821 10.5799V13.4201H8.67821V10.5799H7.17821Z" fill="white"/>
</svg>
