<svg width="24" height="24" viewBox="0 0 24 24" fill="none" xmlns="http://www.w3.org/2000/svg">
<path d="M8.58926 5.71116L8.74234 6.44537C9.02884 6.38563 9.25443 6.1647 9.32012 5.87951L8.58926 5.71116ZM15.4107 5.71116L14.6799 5.87951C14.7456 6.1647 14.9712 6.38563 15.2577 6.44537L15.4107 5.71116ZM15.5602 5.74232L15.4071 6.47653V6.47653L15.5602 5.74232ZM20.2621 10.2039L19.537 10.3953V10.3953L20.2621 10.2039ZM20.2621 15.7961L19.537 15.6047L20.2621 15.7961ZM15.5602 20.2577L15.7133 20.9919L15.5602 20.2577ZM15.1234 20.3488L15.2765 21.083L15.2765 21.083L15.1234 20.3488ZM8.87657 20.3488L9.02966 19.6145H9.02966L8.87657 20.3488ZM8.43978 20.2577L8.2867 20.9919H8.2867L8.43978 20.2577ZM3.73786 15.7961L4.46304 15.6047L3.73786 15.7961ZM3.73786 10.2039L4.46304 10.3953H4.46304L3.73786 10.2039ZM8.43978 5.74232L8.2867 5.00811L8.2867 5.00811L8.43978 5.74232ZM5.41886 8.4596C5.67269 8.13228 5.61311 7.66116 5.28579 7.40733C4.95846 7.15349 4.48734 7.21307 4.23351 7.5404L5.41886 8.4596ZM17.0187 20.5816C17.3996 20.4189 17.5765 19.9782 17.4138 19.5973C17.251 19.2163 16.8103 19.0395 16.4294 19.2022L17.0187 20.5816ZM6.10393 5.86311C5.75218 6.08186 5.64437 6.54433 5.86311 6.89607C6.08186 7.24782 6.54433 7.35563 6.89607 7.13689L6.10393 5.86311ZM17.983 17.9566C17.6829 18.2421 17.6711 18.7169 17.9566 19.017C18.2421 19.3171 18.7169 19.3289 19.017 19.0434L17.983 17.9566ZM3.53033 2.46967C3.23744 2.17678 2.76256 2.17678 2.46967 2.46967C2.17678 2.76256 2.17678 3.23744 2.46967 3.53033L3.53033 2.46967ZM20.4697 21.5303C20.7626 21.8232 21.2374 21.8232 21.5303 21.5303C21.8232 21.2374 21.8232 20.7626 21.5303 20.4697L20.4697 21.5303ZM11.0229 9.89965C10.6278 10.0241 10.4084 10.4452 10.5328 10.8403C10.6573 11.2354 11.0784 11.4548 11.4735 11.3304L11.0229 9.89965ZM10.3204 12.5064C10.4369 12.1089 10.2092 11.6922 9.81169 11.5757C9.4142 11.4591 8.99751 11.6869 8.88097 12.0844L10.3204 12.5064ZM13.6679 13.5318C13.5423 13.9265 13.7603 14.3483 14.155 14.474C14.5497 14.5997 14.9715 14.3817 15.0972 13.987L13.6679 13.5318ZM12.9093 16.1209C13.307 16.0051 13.5356 15.5889 13.4199 15.1912C13.3042 14.7935 12.8879 14.5649 12.4902 14.6806L12.9093 16.1209ZM9.32012 5.87951C9.60119 4.6593 10.6953 3.75 12 3.75V2.25C9.98122 2.25 8.29283 3.65682 7.8584 5.5428L9.32012 5.87951ZM12 3.75C13.3047 3.75 14.3988 4.6593 14.6799 5.87951L16.1416 5.54281C15.7072 3.65682 14.0188 2.25 12 2.25V3.75ZM15.2577 6.44537L15.4071 6.47653L15.7133 5.00811L15.5638 4.97695L15.2577 6.44537ZM15.4071 6.47653C17.4148 6.89515 19.0137 8.41225 19.537 10.3953L20.9873 10.0125C20.319 7.48013 18.2772 5.54271 15.7133 5.00811L15.4071 6.47653ZM19.537 10.3953C19.9875 12.1025 19.9875 13.8975 19.537 15.6047L20.9873 15.9875C21.504 14.0293 21.504 11.9707 20.9873 10.0125L19.537 10.3953ZM15.4071 19.5235L14.9703 19.6145L15.2765 21.083L15.7133 20.9919L15.4071 19.5235ZM14.9703 19.6145C13.0112 20.023 10.9888 20.023 9.02966 19.6145L8.72349 21.083C10.8846 21.5336 13.1154 21.5336 15.2765 21.083L14.9703 19.6145ZM9.02966 19.6145L8.59287 19.5235L8.2867 20.9919L8.72349 21.083L9.02966 19.6145ZM8.59287 19.5235C6.58516 19.1049 4.98633 17.5878 4.46304 15.6047L3.01269 15.9875C3.68096 18.5199 5.72275 20.4573 8.2867 20.9919L8.59287 19.5235ZM4.46304 15.6047C4.0125 13.8975 4.0125 12.1025 4.46304 10.3953L3.01269 10.0125C2.49595 11.9707 2.49595 14.0293 3.01269 15.9875L4.46304 15.6047ZM8.59287 6.47653L8.74234 6.44537L8.43617 4.97695L8.2867 5.00811L8.59287 6.47653ZM4.46304 10.3953C4.652 9.67918 4.98102 9.0242 5.41886 8.4596L4.23351 7.5404C3.67422 8.26161 3.25389 9.09848 3.01269 10.0125L4.46304 10.3953ZM16.4294 19.2022C16.104 19.3412 15.7621 19.4495 15.4071 19.5235L15.7133 20.9919C16.1661 20.8975 16.6028 20.7592 17.0187 20.5816L16.4294 19.2022ZM6.89607 7.13689C7.41536 6.81395 7.94769 6.61106 8.59287 6.47653L8.2867 5.00811C7.49298 5.17361 6.79174 5.43537 6.10393 5.86311L6.89607 7.13689ZM19.537 15.6047C19.2912 16.5359 18.7525 17.2245 17.983 17.9566L19.017 19.0434C19.872 18.2299 20.6387 17.3085 20.9873 15.9875L19.537 15.6047ZM2.46967 3.53033L20.4697 21.5303L21.5303 20.4697L3.53033 2.46967L2.46967 3.53033ZM12 14.75C11.0335 14.75 10.25 13.9665 10.25 13H8.75C8.75 14.7949 10.2051 16.25 12 16.25V14.75ZM12 11.25C12.9665 11.25 13.75 12.0335 13.75 13H15.25C15.25 11.2051 13.7949 9.75 12 9.75V11.25ZM12 9.75C11.6607 9.75 11.3322 9.80224 11.0229 9.89965L11.4735 11.3304C11.6387 11.2783 11.8153 11.25 12 11.25V9.75ZM8.88097 12.0844C8.79556 12.3757 8.75 12.6832 8.75 13H10.25C10.25 12.8275 10.2747 12.6621 10.3204 12.5064L8.88097 12.0844ZM13.75 13C13.75 13.1866 13.721 13.365 13.6679 13.5318L15.0972 13.987C15.1966 13.6748 15.25 13.3429 15.25 13H13.75ZM12.4902 14.6806C12.3356 14.7256 12.1713 14.75 12 14.75V16.25C12.3145 16.25 12.6199 16.2051 12.9093 16.1209L12.4902 14.6806Z" fill="white"/>
</svg>
