<svg width="24" height="24" viewBox="0 0 24 24" fill="none" xmlns="http://www.w3.org/2000/svg">
<path d="M3.20258 8.70024H20.7974M2.88539 15.1513C2.37154 13.0819 2.37154 10.9181 2.88539 8.84875C3.55805 6.13983 5.70602 4.04534 8.43056 3.44162L8.88443 3.34105C10.9366 2.88632 13.0634 2.88632 15.1156 3.34105L15.5694 3.44162C18.294 4.04534 20.442 6.13984 21.1146 8.84875C21.6285 10.9182 21.6285 13.0819 21.1146 15.1512C20.442 17.8602 18.294 19.9547 15.5694 20.5584L15.1156 20.659C13.0634 21.1137 10.9366 21.1137 8.88443 20.659L8.43056 20.5584C5.70601 19.9547 3.55805 17.8602 2.88539 15.1513Z" stroke="white" stroke-width="1.5"/>
<path d="M7 12L11 12" stroke="white" stroke-width="1.5" stroke-linecap="round"/>
</svg>
