<svg width="24" height="24" viewBox="0 0 24 24" fill="none" xmlns="http://www.w3.org/2000/svg">
<path d="M13.6223 16.4393V17.2903C13.6223 18.1299 12.9258 18.8105 12.0667 18.8105M10.511 16.4393V17.2903C10.511 18.1299 11.2075 18.8105 12.0667 18.8105M12.0667 18.8105V21M12.4815 6.81116L10.4073 9.34489H13.5186L11.4444 11.8786M5.28772 11.5948C4.90409 10.1183 4.90409 8.57148 5.28772 7.09496C5.77901 5.2041 7.32284 3.74768 9.2739 3.3345L9.73292 3.2373C11.227 2.9209 12.773 2.9209 14.2671 3.2373L14.7261 3.3345C16.6772 3.74768 18.221 5.2041 18.7123 7.09496C19.0959 8.57148 19.0959 10.1183 18.7123 11.5948C18.221 13.4857 16.6772 14.9421 14.7261 15.3552L14.2671 15.4525C12.773 15.7688 11.227 15.7688 9.73292 15.4525L9.27389 15.3552C7.32284 14.9421 5.77901 13.4857 5.28772 11.5948Z" stroke="white" stroke-width="1.5" stroke-linecap="round" stroke-linejoin="round"/>
</svg>
