<svg width="24" height="24" viewBox="0 0 24 24" fill="none" xmlns="http://www.w3.org/2000/svg">
<path d="M12 5.8203C11.2973 5.8203 10.5947 5.90107 9.90603 6.0626C9.51302 6.15479 9.13776 6.29122 8.78571 6.46643M12 5.8203C12.7026 5.8203 13.4053 5.90107 14.0939 6.0626C14.4869 6.15479 14.8622 6.29122 15.2142 6.46643M12 5.8203V3M8.78571 6.46643V3M8.78571 6.46643C7.78153 6.96621 6.9662 7.78153 6.46641 8.78571M15.2142 6.46643V3M15.2142 6.46643C16.2184 6.96621 17.0337 7.78153 17.5335 8.78571M5.82027 12C5.82027 12.7027 5.90103 13.4053 6.06257 14.0939C6.15476 14.487 6.29119 14.8622 6.46641 15.2143M5.82027 12C5.82027 11.2973 5.90103 10.5947 6.06257 9.90606C6.15476 9.51304 6.29119 9.13777 6.46641 8.78571M5.82027 12H3M6.46641 8.78571H3M6.46641 15.2143H3M6.46641 15.2143C6.9662 16.2185 7.78153 17.0338 8.78571 17.5336M12 18.1797C12.7026 18.1797 13.4053 18.0989 14.0939 17.9374C14.4869 17.8452 14.8622 17.7088 15.2142 17.5336M12 18.1797C11.2973 18.1797 10.5947 18.0989 9.90604 17.9374C9.51302 17.8452 9.13776 17.7088 8.78571 17.5336M12 18.1797V21M8.78571 17.5336V21M15.2142 17.5336V21M15.2142 17.5336C16.2184 17.0338 17.0337 16.2185 17.5335 15.2143M18.1797 12C18.1797 11.2974 18.0989 10.5947 17.9374 9.90607C17.8452 9.51304 17.7087 9.13777 17.5335 8.78571M18.1797 12C18.1797 12.7027 18.0989 13.4053 17.9374 14.0939C17.8452 14.487 17.7087 14.8622 17.5335 15.2143M18.1797 12H21M17.5335 8.78571H21M17.5335 15.2143H21" stroke="white" stroke-width="1.5" stroke-linecap="round"/>
<path d="M9.22921 11.0228C9.43797 10.1329 10.1329 9.43797 11.0228 9.22921V9.22921C11.6656 9.07845 12.3344 9.07845 12.9772 9.22921V9.22921C13.8671 9.43797 14.562 10.1329 14.7708 11.0228V11.0228C14.9215 11.6656 14.9216 12.3344 14.7708 12.9772V12.9772C14.562 13.8671 13.8671 14.562 12.9772 14.7708V14.7708C12.3344 14.9216 11.6656 14.9215 11.0228 14.7708V14.7708C10.1329 14.562 9.43797 13.8671 9.22921 12.9772V12.9772C9.07845 12.3344 9.07845 11.6656 9.22921 11.0228V11.0228Z" stroke="white" stroke-width="1.5"/>
</svg>
