<svg width="24" height="24" viewBox="0 0 24 24" fill="none" xmlns="http://www.w3.org/2000/svg">
<path d="M22 17.0208V13.0416L21.9756 12.6779C21.8604 10.9593 21.3378 9.34752 20.4999 7.9502M15.5896 17.8012C15.4203 16.9103 15.4203 15.9944 15.5896 15.1035C15.8616 13.6716 16.8981 12.5183 18.2698 12.121L18.5607 12.0367C18.8632 11.9491 19.176 11.9047 19.4903 11.9047C20.8764 11.9047 22 13.0544 22 14.4727V18.432C22 19.8503 20.8764 21 19.4903 21C19.176 21 18.8632 20.9556 18.5607 20.868L18.2698 20.7837C16.8981 20.3865 15.8616 19.2331 15.5896 17.8012Z" stroke="white" stroke-width="1.5" stroke-linecap="round"/>
<path d="M2.00003 17.0208V13.0416L2.02441 12.6779C2.33807 7.99853 5.672 4.11197 10.1659 3.18691C11.3765 2.93771 12.6235 2.93771 13.8341 3.18691C15.5049 3.53083 17.0153 4.2841 18.2698 5.33526L18.4673 5.53271M22 1.99997L18.4673 5.53271M2 22L3.5 20.5M8.41044 15.5895V15.5895C8.41044 15.2662 8.38953 14.9405 8.29062 14.6328C7.90161 13.4223 6.94805 12.4737 5.73024 12.121L5.43928 12.0367C5.13684 11.9491 4.82403 11.9047 4.50972 11.9047C3.12366 11.9047 2.00003 13.0544 2.00004 14.4727L2.00004 18.432C2.00003 19.2802 2.40193 20.0324 3.02151 20.5L3.5 20.5M8.41044 15.5895L3.5 20.5M8.41044 15.5895L18.4673 5.53271" stroke="white" stroke-width="1.5" stroke-linecap="round"/>
</svg>
