<svg width="24" height="24" viewBox="0 0 24 24" fill="none" xmlns="http://www.w3.org/2000/svg">
<path d="M3.35288 15.0496L2.6227 15.2209L3.35288 15.0496ZM3.35288 8.95043L2.6227 8.77915L3.35288 8.95043ZM20.6471 8.95044L19.9169 9.12171L20.6471 8.95044ZM20.6471 15.0496L19.9169 14.8783L20.6471 15.0496ZM15.0496 20.6471L14.8783 19.9169L15.0496 20.6471ZM8.95044 20.6471L9.12171 19.9169L8.95044 20.6471ZM8.95043 3.35288L9.12171 4.08306L8.95043 3.35288ZM15.0496 3.35288L14.8783 4.08306L15.0496 3.35288ZM14.7514 3.34241C14.5661 2.97193 14.1156 2.82176 13.7451 3.007C13.3747 3.19224 13.2245 3.64275 13.4097 4.01323L14.7514 3.34241ZM14.6103 4.73741L15.2812 4.402L14.6103 4.73741ZM19.2626 9.38966L18.9272 10.0605L19.2626 9.38966ZM19.9868 10.5903C20.3573 10.7755 20.8078 10.6254 20.993 10.2549C21.1782 9.88438 21.0281 9.43388 20.6576 9.24864L19.9868 10.5903ZM10.5903 4.01323C10.7755 3.64274 10.6253 3.19224 10.2549 3.007C9.88438 2.82176 9.43387 2.97192 9.24863 3.34241L10.5903 4.01323ZM9.38966 4.7374L8.71884 4.40199L9.38966 4.7374ZM4.73741 9.38966L4.402 8.71884H4.402L4.73741 9.38966ZM3.34242 9.24863C2.97193 9.43388 2.82176 9.88438 3.00701 10.2549C3.19225 10.6253 3.64275 10.7755 4.01324 10.5903L3.34242 9.24863ZM9.62654 18.2838L10.3635 18.4231L9.62654 18.2838ZM9.64666 18.1774L10.3836 18.3167L9.64666 18.1774ZM14.3533 18.1774L13.6164 18.3167L13.6164 18.3167L14.3533 18.1774ZM14.3735 18.2838L15.1104 18.1445V18.1445L14.3735 18.2838ZM14.072 20.5889L14.7483 20.913H14.7483L14.072 20.5889ZM13.2742 20.5182C13.0952 20.8917 13.2528 21.3396 13.6264 21.5187C13.9999 21.6977 14.4478 21.54 14.6268 21.1665L13.2742 20.5182ZM9.92801 20.5889L9.25168 20.913L9.92801 20.5889ZM9.37316 21.1665C9.55218 21.54 10.0001 21.6977 10.3736 21.5187C10.7472 21.3396 10.9048 20.8917 10.7258 20.5182L9.37316 21.1665ZM11.3353 16.3442L11.1361 15.6212L11.3353 16.3442ZM12.6647 16.3442L12.8639 15.6212L12.6647 16.3442ZM4.08306 14.8783C3.63898 12.9851 3.63898 11.0149 4.08306 9.12171L2.6227 8.77915C2.12577 10.8976 2.12577 13.1024 2.6227 15.2209L4.08306 14.8783ZM19.9169 9.12171C20.361 11.0149 20.361 12.9851 19.9169 14.8783L21.3773 15.2208C21.8742 13.1024 21.8742 10.8976 21.3773 8.77916L19.9169 9.12171ZM14.8783 19.9169C12.9851 20.361 11.0149 20.361 9.12171 19.9169L8.77916 21.3773C10.8976 21.8742 13.1024 21.8742 15.2208 21.3773L14.8783 19.9169ZM9.12171 4.08306C11.0149 3.63898 12.9851 3.63898 14.8783 4.08306L15.2208 2.6227C13.1024 2.12577 10.8976 2.12577 8.77916 2.6227L9.12171 4.08306ZM9.12171 19.9169C6.62161 19.3305 4.6695 17.3784 4.08306 14.8783L2.6227 15.2209C3.33924 18.2756 5.72441 20.6608 8.77916 21.3773L9.12171 19.9169ZM15.2208 21.3773C18.2756 20.6608 20.6608 18.2756 21.3773 15.2208L19.9169 14.8783C19.3305 17.3784 17.3784 19.3305 14.8783 19.9169L15.2208 21.3773ZM14.8783 4.08306C17.3784 4.6695 19.3305 6.62161 19.9169 9.12171L21.3773 8.77916C20.6608 5.72441 18.2756 3.33924 15.2208 2.6227L14.8783 4.08306ZM8.77916 2.6227C5.72441 3.33924 3.33924 5.72441 2.6227 8.77915L4.08306 9.12171C4.6695 6.6216 6.62161 4.6695 9.12171 4.08306L8.77916 2.6227ZM13.4097 4.01323L13.9395 5.07282L15.2812 4.402L14.7514 3.34241L13.4097 4.01323ZM18.9272 10.0605L19.9868 10.5903L20.6576 9.24864L19.598 8.71884L18.9272 10.0605ZM13.9395 5.07282C15.0187 7.23118 16.7688 8.9813 18.9272 10.0605L19.598 8.71884C17.7299 7.78481 16.2152 6.27007 15.2812 4.402L13.9395 5.07282ZM9.24863 3.34241L8.71884 4.40199L10.0605 5.07281L10.5903 4.01323L9.24863 3.34241ZM4.402 8.71884L3.34242 9.24863L4.01324 10.5903L5.07282 10.0605L4.402 8.71884ZM8.71884 4.40199C7.78481 6.27007 6.27008 7.7848 4.402 8.71884L5.07282 10.0605C7.23119 8.9813 8.98131 7.23118 10.0605 5.07281L8.71884 4.40199ZM10.3635 18.4231L10.3836 18.3167L8.90971 18.038L8.88959 18.1445L10.3635 18.4231ZM13.6164 18.3167L13.6365 18.4231L15.1104 18.1445L15.0903 18.038L13.6164 18.3167ZM13.3957 20.2647L13.2742 20.5182L14.6268 21.1665L14.7483 20.913L13.3957 20.2647ZM9.25168 20.913L9.37316 21.1665L10.7258 20.5182L10.6043 20.2647L9.25168 20.913ZM13.6365 18.4231C13.7544 19.047 13.6701 19.6922 13.3957 20.2647L14.7483 20.913C15.1608 20.0523 15.2877 19.0823 15.1104 18.1445L13.6365 18.4231ZM8.88959 18.1445C8.7123 19.0823 8.83916 20.0523 9.25168 20.913L10.6043 20.2647C10.3299 19.6922 10.2456 19.047 10.3635 18.4231L8.88959 18.1445ZM11.5345 17.0673C11.8392 16.9833 12.1608 16.9833 12.4655 17.0673L12.8639 15.6212C12.2985 15.4654 11.7015 15.4654 11.1361 15.6212L11.5345 17.0673ZM15.0903 18.038C14.8702 16.8736 14.0064 15.9359 12.8639 15.6212L12.4655 17.0673C13.0561 17.23 13.5026 17.7147 13.6164 18.3167L15.0903 18.038ZM10.3836 18.3167C10.4974 17.7147 10.9439 17.23 11.5345 17.0673L11.1361 15.6212C9.99359 15.9359 9.12984 16.8736 8.90971 18.038L10.3836 18.3167Z" fill="white"/>
</svg>
