<svg width="24" height="24" viewBox="0 0 24 24" fill="none" xmlns="http://www.w3.org/2000/svg">
<path d="M12.4498 15.6323L12.5562 16.3747L12.5562 16.3747L12.4498 15.6323ZM11.559 15.6323L11.6655 14.8899H11.6655L11.559 15.6323ZM11.5523 3.03274L11.4443 2.29056L11.5523 3.03274ZM12.4564 3.03274L12.5644 2.29056H12.5644L12.4564 3.03274ZM7.87983 11.9127L7.13784 12.022L7.87983 11.9127ZM7.88002 6.75693L8.62201 6.86628L7.88002 6.75693ZM16.1263 6.77402L16.8685 6.66576L16.1263 6.77402ZM16.1265 11.8956L15.3844 11.7873L16.1265 11.8956ZM12.5495 15.618L12.4431 14.8756L12.4431 14.8756L12.5495 15.618ZM12.5532 3.04682L12.4452 3.789H12.4452L12.5532 3.04682ZM11.4402 3.04907L11.5482 3.79125L11.4402 3.04907ZM11.4438 15.6158L11.3374 16.3582H11.3374L11.4438 15.6158ZM19.75 11.4531C19.75 11.0389 19.4142 10.7031 19 10.7031C18.5858 10.7031 18.25 11.0389 18.25 11.4531H19.75ZM5.75 11.4531C5.75 11.0389 5.41421 10.7031 5 10.7031C4.58579 10.7031 4.25 11.0389 4.25 11.4531H5.75ZM11.25 21C11.25 21.4142 11.5858 21.75 12 21.75C12.4142 21.75 12.75 21.4142 12.75 21H11.25ZM11.5482 3.79125L11.6604 3.77492L11.4443 2.29056L11.3322 2.30689L11.5482 3.79125ZM12.3484 3.77492L12.4452 3.789L12.6612 2.30464L12.5644 2.29056L12.3484 3.77492ZM12.4431 14.8756L12.3433 14.8899L12.5562 16.3747L12.656 16.3604L12.4431 14.8756ZM11.6655 14.8899L11.5503 14.8734L11.3374 16.3582L11.4526 16.3747L11.6655 14.8899ZM12.3433 14.8899C12.1183 14.9221 11.8904 14.9221 11.6655 14.8899L11.4526 16.3747C11.8187 16.4272 12.19 16.4272 12.5562 16.3747L12.3433 14.8899ZM11.6604 3.77492C11.8887 3.74169 12.1201 3.74169 12.3484 3.77492L12.5644 2.29056C12.1929 2.23648 11.8159 2.23648 11.4443 2.29056L11.6604 3.77492ZM8.62181 11.8033C8.38082 10.1681 8.381 8.5016 8.62201 6.86628L7.13804 6.64758C6.87567 8.4278 6.87546 10.2417 7.13784 12.022L8.62181 11.8033ZM15.3842 6.88228C15.6212 8.50721 15.6214 10.1625 15.3844 11.7873L16.8687 12.0039C17.1267 10.2354 17.1265 8.43416 16.8685 6.66576L15.3842 6.88228ZM15.3844 11.7873C15.1449 13.4291 13.9262 14.6629 12.4431 14.8756L12.656 16.3604C14.8486 16.046 16.541 14.2505 16.8687 12.0039L15.3844 11.7873ZM16.8685 6.66576C16.541 4.42095 14.852 2.6235 12.6612 2.30464L12.4452 3.789C13.9274 4.00473 15.1447 5.24066 15.3842 6.88228L16.8685 6.66576ZM8.62201 6.86628C8.8626 5.23377 10.0741 4.0058 11.5482 3.79125L11.3322 2.30689C9.15041 2.62443 7.46741 4.41269 7.13804 6.64758L8.62201 6.86628ZM7.13784 12.022C7.46748 14.2587 9.15376 16.0451 11.3374 16.3582L11.5503 14.8734C10.0752 14.6618 8.86243 13.436 8.62181 11.8033L7.13784 12.022ZM18.25 11.4531C18.25 15.1821 15.4107 18.1285 12 18.1285V19.6285C16.3213 19.6285 19.75 15.9259 19.75 11.4531H18.25ZM12 18.1285C8.58929 18.1285 5.75 15.1821 5.75 11.4531H4.25C4.25 15.9259 7.67872 19.6285 12 19.6285V18.1285ZM11.25 18.8785V21H12.75V18.8785H11.25Z" fill="white"/>
</svg>
