<svg width="24" height="24" viewBox="0 0 24 24" fill="none" xmlns="http://www.w3.org/2000/svg">
<path d="M3.35288 8.95043C4.00437 6.17301 6.17301 4.00437 8.95043 3.35288C10.9563 2.88237 13.0437 2.88237 15.0496 3.35288C17.827 4.00437 19.9956 6.17301 20.6471 8.95044C21.1176 10.9563 21.1176 13.0437 20.6471 15.0496C19.9956 17.827 17.827 19.9956 15.0496 20.6471C13.0437 21.1176 10.9563 21.1176 8.95044 20.6471C6.17301 19.9956 4.00437 17.827 3.35288 15.0496C2.88237 13.0437 2.88237 10.9563 3.35288 8.95043Z" stroke="white" stroke-width="1.5"/>
<path d="M9.05485 12C9.05485 12.5523 8.59486 13 8.02742 13C7.45999 13 7 12.5523 7 12C7 11.4477 7.45999 11 8.02742 11C8.59486 11 9.05485 11.4477 9.05485 12Z" fill="white"/>
<path d="M13.0274 12C13.0274 12.5523 12.5674 13 12 13C11.4326 13 10.9726 12.5523 10.9726 12C10.9726 11.4477 11.4326 11 12 11C12.5674 11 13.0274 11.4477 13.0274 12Z" fill="white"/>
<path d="M17 12C17 12.5523 16.54 13 15.9726 13C15.4051 13 14.9452 12.5523 14.9452 12C14.9452 11.4477 15.4051 11 15.9726 11C16.54 11 17 11.4477 17 12Z" fill="white"/>
</svg>
