<svg width="24" height="24" viewBox="0 0 24 24" fill="none" xmlns="http://www.w3.org/2000/svg">
<path d="M8.57008 3V5.51375M16.4299 3V5.51375M9.55256 15.3174H12.5M9.55256 12.3009H15.4474M4.33327 15.2485C3.88891 13.3097 3.88891 11.292 4.33327 9.35323C4.94858 6.66865 6.99673 4.57251 9.61985 3.94279C11.5142 3.48802 13.4858 3.48802 15.3801 3.94279C18.0033 4.57251 20.0514 6.66865 20.6667 9.35323C21.1111 11.292 21.1111 13.3097 20.6667 15.2485C20.0514 17.9331 18.0033 20.0292 15.3801 20.6589C13.4858 21.1137 11.5142 21.1137 9.61986 20.6589C6.99673 20.0292 4.94858 17.9331 4.33327 15.2485Z" stroke="white" stroke-width="1.5" stroke-linecap="round"/>
</svg>
