<svg width="24" height="24" viewBox="0 0 24 24" fill="none" xmlns="http://www.w3.org/2000/svg">
<path d="M2 19.25C1.58579 19.25 1.25 19.5858 1.25 20C1.25 20.4142 1.58579 20.75 2 20.75V19.25ZM22 20.75C22.4142 20.75 22.75 20.4142 22.75 20C22.75 19.5858 22.4142 19.25 22 19.25V20.75ZM4.97222 20C4.97222 16.1687 8.11154 13.05 12 13.05V11.55C7.29736 11.55 3.47222 15.3261 3.47222 20H4.97222ZM12 13.05C15.8885 13.05 19.0278 16.1687 19.0278 20H20.5278C20.5278 15.3261 16.7026 11.55 12 11.55V13.05ZM9.97222 11.475C9.97222 11.0646 10.1898 10.6401 10.5942 10.2963C10.9999 9.95147 11.5258 9.75 12 9.75V8.25C11.1337 8.25 10.2707 8.60258 9.62263 9.15348C8.97322 9.70554 8.47222 10.5185 8.47222 11.475H9.97222ZM12 9.75C12.4742 9.75 13.0001 9.95147 13.4058 10.2963C13.8102 10.6401 14.0278 11.0646 14.0278 11.475H15.5278C15.5278 10.5185 15.0268 9.70554 14.3774 9.15348C13.7293 8.60258 12.8663 8.25 12 8.25V9.75ZM14.0278 11.475V12.85H15.5278V11.475H14.0278ZM8.47222 11.475V12.85H9.97222V11.475H8.47222ZM2 20.75H22V19.25H2V20.75Z" fill="white"/>
<path d="M12 5V4M16.5 6.06219L15.5622 7M8.43781 7L7.5 6.06218" stroke="white" stroke-width="1.5" stroke-linecap="round" stroke-linejoin="round"/>
</svg>
