<svg width="24" height="24" viewBox="0 0 24 24" fill="none" xmlns="http://www.w3.org/2000/svg">
<path d="M18.48 18.5368H21M4.68 12L3 12.044M4.68 12C4.68 13.3255 5.75451 14.4 7.08 14.4C8.40548 14.4 9.48 13.3255 9.48 12C9.48 10.6745 8.40548 9.6 7.08 9.6C5.75451 9.6 4.68 10.6745 4.68 12ZM10.169 12.0441H21M12.801 5.55124L3 5.55124M21 5.55124H18.48M3 18.5368H12.801M17.88 18.6C17.88 19.9255 16.8055 21 15.48 21C14.1545 21 13.08 19.9255 13.08 18.6C13.08 17.2745 14.1545 16.2 15.48 16.2C16.8055 16.2 17.88 17.2745 17.88 18.6ZM17.88 5.4C17.88 6.72548 16.8055 7.8 15.48 7.8C14.1545 7.8 13.08 6.72548 13.08 5.4C13.08 4.07452 14.1545 3 15.48 3C16.8055 3 17.88 4.07452 17.88 5.4Z" stroke="white" stroke-width="1.5" stroke-linecap="round"/>
</svg>
