<svg width="24" height="24" viewBox="0 0 24 24" fill="none" xmlns="http://www.w3.org/2000/svg">
<path d="M10 12.7083V16.5917M14 12.7083V16.5917M5.29802 12.6172C5.47035 11.5477 5.94027 10.5737 6.62639 9.77989C10.1789 10.4152 13.8211 10.4152 17.3736 9.7799C18.0597 10.5737 18.5296 11.5477 18.702 12.6172L18.7396 12.8505C18.9112 13.9157 18.8462 15.0041 18.5489 16.0429L18.4313 16.454C17.7751 18.7471 15.8194 20.4696 13.4049 20.8812C12.4754 21.0396 11.5246 21.0396 10.595 20.8812C8.18057 20.4696 6.22491 18.7471 5.5687 16.454L5.45105 16.0429C5.15379 15.0041 5.08879 13.9157 5.26042 12.8505L5.29802 12.6172ZM17.5112 9.75496C13.8693 10.4235 10.1307 10.4235 6.48878 9.75496C5.62523 9.59643 5 8.8639 5 8.01068V7.86432C5 6.78636 5.90011 5.9125 7.01045 5.9125H16.9895C18.0999 5.9125 19 6.78636 19 7.86432V8.01068C19 8.8639 18.3748 9.59643 17.5112 9.75496ZM9.22836 4.79794C9.0776 5.1513 9 5.53003 9 5.9125L15 5.9125C15 5.53003 14.9224 5.1513 14.7716 4.79794C14.6209 4.44458 14.3999 4.1235 14.1213 3.85305C13.8427 3.5826 13.512 3.36807 13.1481 3.2217C12.7841 3.07533 12.394 3 12 3C11.606 3 11.2159 3.07533 10.8519 3.2217C10.488 3.36807 10.1573 3.5826 9.87868 3.85305C9.6001 4.1235 9.37913 4.44458 9.22836 4.79794Z" stroke="white" stroke-width="1.5" stroke-linecap="round"/>
</svg>
