<svg width="24" height="24" viewBox="0 0 24 24" fill="none" xmlns="http://www.w3.org/2000/svg">
<path d="M15.3509 3L12.0003 6.17647L8.64973 3M8.66699 19.4118L7.55579 21M15.3342 19.4118L16.4454 21M4.80827 15.4094C4.39724 13.8668 4.39724 12.2508 4.80827 10.7083C5.33465 8.73282 6.98876 7.21126 9.07917 6.7796L9.57098 6.67805C11.1718 6.3475 12.8283 6.3475 14.429 6.67805L14.9208 6.7796C17.0112 7.21126 18.6654 8.73283 19.1917 10.7083C19.6028 12.2508 19.6028 13.8668 19.1917 15.4094C18.6654 17.3848 17.0112 18.9064 14.9208 19.338L14.429 19.4396C12.8283 19.7701 11.1717 19.7701 9.57098 19.4396L9.07917 19.338C6.98875 18.9064 5.33465 17.3848 4.80827 15.4094Z" stroke="white" stroke-width="1.5" stroke-linecap="round"/>
</svg>
