<svg width="24" height="24" viewBox="0 0 24 24" fill="none" xmlns="http://www.w3.org/2000/svg">
<path d="M12.3085 18.4588L11.7903 19.0009H11.7903L12.3085 18.4588ZM11.6998 17.8769L12.218 17.3348H12.218L11.6998 17.8769ZM17.7955 17.0187L18.522 17.2047L17.7955 17.0187ZM10.3689 16.6019C9.95465 16.6019 9.61886 16.9376 9.61886 17.3519C9.61886 17.7661 9.95465 18.1019 10.3689 18.1019V16.6019ZM19.0163 10.1206C18.9701 9.70893 18.5989 9.41271 18.1873 9.45894C17.7757 9.50517 17.4795 9.87633 17.5257 10.288L19.0163 10.1206ZM3.88828 13.6276L4.62782 13.5028V13.5028L3.88828 13.6276ZM3.87984 13.5776L3.1403 13.7024L3.1403 13.7024L3.87984 13.5776ZM3.87984 11.052L4.61937 11.1769L4.61937 11.1769L3.87984 11.052ZM3.88828 11.002L3.14874 10.8772L3.14874 10.8772L3.88828 11.002ZM11.6998 6.75269L12.218 7.29486L12.218 7.29486L11.6998 6.75269ZM12.3085 6.17086L11.7903 5.62869L11.7903 5.62869L12.3085 6.17086ZM6.80006 7.71564L6.56559 7.00323H6.56559L6.80006 7.71564ZM6.56527 17.6263C6.95866 17.756 7.38269 17.5422 7.51236 17.1488C7.64204 16.7554 7.42825 16.3314 7.03486 16.2017L6.56527 17.6263ZM19.7413 5.03033C20.0342 4.73744 20.0342 4.26256 19.7413 3.96967C19.4484 3.67678 18.9736 3.67678 18.6807 3.96967L19.7413 5.03033ZM3.96967 18.6807C3.67678 18.9735 3.67678 19.4484 3.96967 19.7413C4.26256 20.0342 4.73743 20.0342 5.03033 19.7413L3.96967 18.6807ZM12.8268 17.9166L12.218 17.3348L11.1816 18.4191L11.7903 19.0009L12.8268 17.9166ZM11.7903 19.0009C13.9681 21.0825 17.7687 20.1464 18.522 17.2047L17.0689 16.8326C16.6216 18.5793 14.2387 19.2661 12.8268 17.9166L11.7903 19.0009ZM10.3689 18.1019C10.6821 18.1019 10.974 18.2207 11.1816 18.4191L12.218 17.3348C11.7226 16.8612 11.0559 16.6019 10.3689 16.6019V18.1019ZM17.5257 10.288C17.7709 12.4716 17.6188 14.6854 17.0689 16.8326L18.522 17.2047C19.117 14.8814 19.2818 12.4848 19.0163 10.1206L17.5257 10.288ZM9.5393 8.02778H10.3689V6.52778H9.5393V8.02778ZM4.62782 13.5028L4.61937 13.4528L3.1403 13.7024L3.14874 13.7525L4.62782 13.5028ZM4.61937 11.1769L4.62782 11.1268L3.14874 10.8772L3.1403 10.9272L4.61937 11.1769ZM12.218 7.29486L12.8268 6.71303L11.7903 5.62869L11.1816 6.21052L12.218 7.29486ZM4.61937 13.4528C4.49211 12.6988 4.49211 11.9308 4.61937 11.1769L3.1403 10.9272C2.98514 11.8464 2.98514 12.7832 3.1403 13.7024L4.61937 13.4528ZM7.03453 8.42805C7.83908 8.16325 8.68588 8.02778 9.5393 8.02778V6.52778C8.52752 6.52778 7.52237 6.68833 6.56559 7.00323L7.03453 8.42805ZM7.03486 16.2017L7.03256 16.2009L6.56297 17.6255L6.56527 17.6263L7.03486 16.2017ZM7.03261 16.2009C5.74408 15.7761 4.83477 14.7288 4.62782 13.5028L3.14874 13.7525C3.45404 15.5611 4.7798 17.0376 6.56292 17.6255L7.03261 16.2009ZM10.3689 8.02778C11.0559 8.02778 11.7226 7.76841 12.218 7.29486L11.1816 6.21052C10.974 6.40896 10.6821 6.52778 10.3689 6.52778V8.02778ZM6.56559 7.00323C4.78112 7.59055 3.45419 9.06763 3.14874 10.8772L4.62782 11.1268C4.83487 9.90021 5.74499 8.85247 7.03453 8.42805L6.56559 7.00323ZM12.8268 6.71303C14.0319 5.56111 16.0017 5.88877 16.7931 7.15106L18.064 6.35432C16.7763 4.3003 13.6933 3.80978 11.7903 5.62869L12.8268 6.71303ZM18.6807 3.96967L6.26744 16.3829L7.3281 17.4436L19.7413 5.03033L18.6807 3.96967ZM6.26744 16.3829L3.96967 18.6807L5.03033 19.7413L7.3281 17.4436L6.26744 16.3829Z" fill="white"/>
</svg>
