<svg width="24" height="24" viewBox="0 0 24 24" fill="none" xmlns="http://www.w3.org/2000/svg">
<path d="M3.31573 13.7811L4.04591 13.6098L3.31573 13.7811ZM3.31573 8.324L4.04591 8.49528L3.31573 8.324ZM18.7893 8.324L19.5195 8.15273L18.7893 8.324ZM18.7893 13.781L19.5195 13.9523L18.7893 13.781ZM13.781 18.7893L13.6098 18.0591L13.781 18.7893ZM8.324 18.7893L8.15273 19.5195L8.324 18.7893ZM8.324 3.31573L8.15272 2.58555L8.324 3.31573ZM13.781 3.31573L13.9523 2.58555L13.781 3.31573ZM20.4697 21.5303C20.7626 21.8232 21.2374 21.8232 21.5303 21.5303C21.8232 21.2374 21.8232 20.7626 21.5303 20.4697L20.4697 21.5303ZM13.6703 11.8025C14.0845 11.8025 14.4203 11.4667 14.4203 11.0525C14.4203 10.6383 14.0845 10.3025 13.6703 10.3025V11.8025ZM8.43477 10.3025C8.02055 10.3025 7.68477 10.6383 7.68477 11.0525C7.68477 11.4667 8.02055 11.8025 8.43477 11.8025V10.3025ZM10.3025 13.6703C10.3025 14.0845 10.6383 14.4203 11.0525 14.4203C11.4667 14.4203 11.8025 14.0845 11.8025 13.6703H10.3025ZM11.8025 8.43477C11.8025 8.02055 11.4667 7.68477 11.0525 7.68477C10.6383 7.68477 10.3025 8.02055 10.3025 8.43477H11.8025ZM4.04591 13.6098C3.65136 11.9278 3.65136 10.1773 4.04591 8.49528L2.58555 8.15272C2.13815 10.06 2.13815 12.045 2.58555 13.9523L4.04591 13.6098ZM18.0591 8.49528C18.4537 10.1773 18.4537 11.9278 18.0591 13.6098L19.5195 13.9523C19.9669 12.045 19.9669 10.06 19.5195 8.15273L18.0591 8.49528ZM13.6098 18.0591C11.9278 18.4537 10.1773 18.4537 8.49528 18.0591L8.15273 19.5195C10.06 19.9669 12.045 19.9669 13.9523 19.5195L13.6098 18.0591ZM8.49528 4.04591C10.1773 3.65136 11.9278 3.65136 13.6098 4.04591L13.9523 2.58555C12.045 2.13815 10.06 2.13815 8.15272 2.58555L8.49528 4.04591ZM8.49528 18.0591C6.28757 17.5413 4.56377 15.8175 4.04591 13.6098L2.58555 13.9523C3.23351 16.7147 5.39038 18.8715 8.15273 19.5195L8.49528 18.0591ZM13.9523 19.5195C16.7147 18.8715 18.8715 16.7147 19.5195 13.9523L18.0591 13.6098C17.5413 15.8175 15.8175 17.5413 13.6098 18.0591L13.9523 19.5195ZM13.6098 4.04591C15.8175 4.56377 17.5413 6.28757 18.0591 8.49528L19.5195 8.15273C18.8715 5.39037 16.7147 3.23351 13.9523 2.58555L13.6098 4.04591ZM8.15272 2.58555C5.39037 3.23351 3.23351 5.39037 2.58555 8.15272L4.04591 8.49528C4.56377 6.28756 6.28757 4.56377 8.49528 4.04591L8.15272 2.58555ZM16.8048 17.8655L20.4697 21.5303L21.5303 20.4697L17.8655 16.8048L16.8048 17.8655ZM13.6703 10.3025H11.0525V11.8025H13.6703V10.3025ZM11.0525 10.3025H8.43477V11.8025H11.0525V10.3025ZM11.8025 13.6703V11.0525H10.3025L10.3025 13.6703H11.8025ZM11.8025 11.0525V8.43477H10.3025V11.0525H11.8025Z" fill="white"/>
</svg>
